<svg width="35" height="35" viewBox="0 0 35 35" fill="none" xmlns="http://www.w3.org/2000/svg">
<path d="M12.1406 13.875H5.20312C4.43677 13.8759 3.70206 14.1808 3.16016 14.7227C2.61826 15.2646 2.31342 15.9993 2.3125 16.7656V19.0781C2.31342 19.8445 2.61826 20.5792 3.16016 21.1211C3.70206 21.663 4.43677 21.9678 5.20312 21.9688H12.1406C12.907 21.9678 13.6417 21.663 14.1836 21.1211C14.7255 20.5792 15.0303 19.8445 15.0312 19.0781V16.7656C15.0303 15.9993 14.7255 15.2646 14.1836 14.7227C13.6417 14.1808 12.907 13.8759 12.1406 13.875V13.875ZM13.875 19.0781C13.875 19.5381 13.6923 19.9793 13.367 20.3045C13.0418 20.6298 12.6006 20.8125 12.1406 20.8125H5.20312C4.74314 20.8125 4.30199 20.6298 3.97674 20.3045C3.65148 19.9793 3.46875 19.5381 3.46875 19.0781V16.7656C3.46875 16.3056 3.65148 15.8645 3.97674 15.5392C4.30199 15.214 4.74314 15.0313 5.20312 15.0312H12.1406C12.6006 15.0312 13.0418 15.214 13.367 15.5392C13.6923 15.8645 13.875 16.3056 13.875 16.7656V19.0781Z" fill="black"/>
<path d="M4.91406 23.125H3.75781C3.37449 23.125 3.00687 23.2773 2.73582 23.5483C2.46477 23.8194 2.3125 24.187 2.3125 24.5703V25.7266C2.3125 26.1099 2.46477 26.4775 2.73582 26.7486C3.00687 27.0196 3.37449 27.1719 3.75781 27.1719H4.91406C5.29738 27.1719 5.665 27.0196 5.93605 26.7486C6.2071 26.4775 6.35938 26.1099 6.35938 25.7266V24.5703C6.35938 24.187 6.2071 23.8194 5.93605 23.5483C5.665 23.2773 5.29738 23.125 4.91406 23.125ZM5.20312 25.7266C5.20312 25.8032 5.17267 25.8768 5.11846 25.931C5.06425 25.9852 4.99073 26.0156 4.91406 26.0156H3.75781C3.68115 26.0156 3.60762 25.9852 3.55341 25.931C3.4992 25.8768 3.46875 25.8032 3.46875 25.7266V24.5703C3.46875 24.4936 3.4992 24.4201 3.55341 24.3659C3.60762 24.3117 3.68115 24.2812 3.75781 24.2812H4.91406C4.99073 24.2812 5.06425 24.3117 5.11846 24.3659C5.17267 24.4201 5.20312 24.4936 5.20312 24.5703V25.7266Z" fill="black"/>
<path d="M4.91406 28.3281H3.75781C3.37449 28.3281 3.00687 28.4804 2.73582 28.7514C2.46477 29.0225 2.3125 29.3901 2.3125 29.7734V30.9297C2.3125 31.313 2.46477 31.6806 2.73582 31.9517C3.00687 32.2227 3.37449 32.375 3.75781 32.375H4.91406C5.29738 32.375 5.665 32.2227 5.93605 31.9517C6.2071 31.6806 6.35938 31.313 6.35938 30.9297V29.7734C6.35938 29.3901 6.2071 29.0225 5.93605 28.7514C5.665 28.4804 5.29738 28.3281 4.91406 28.3281V28.3281ZM5.20312 30.9297C5.20312 31.0064 5.17267 31.0799 5.11846 31.1341C5.06425 31.1883 4.99073 31.2188 4.91406 31.2188H3.75781C3.68115 31.2188 3.60762 31.1883 3.55341 31.1341C3.4992 31.0799 3.46875 31.0064 3.46875 30.9297V29.7734C3.46875 29.6968 3.4992 29.6232 3.55341 29.569C3.60762 29.5148 3.68115 29.4844 3.75781 29.4844H4.91406C4.99073 29.4844 5.06425 29.5148 5.11846 29.569C5.17267 29.6232 5.20312 29.6968 5.20312 29.7734V30.9297Z" fill="black"/>
<path d="M9.53906 23.125H8.38281C7.99949 23.125 7.63187 23.2773 7.36082 23.5483C7.08977 23.8194 6.9375 24.187 6.9375 24.5703V25.7266C6.9375 26.1099 7.08977 26.4775 7.36082 26.7486C7.63187 27.0196 7.99949 27.1719 8.38281 27.1719H9.53906C9.92238 27.1719 10.29 27.0196 10.5611 26.7486C10.8321 26.4775 10.9844 26.1099 10.9844 25.7266V24.5703C10.9844 24.187 10.8321 23.8194 10.5611 23.5483C10.29 23.2773 9.92238 23.125 9.53906 23.125ZM9.82812 25.7266C9.82812 25.8032 9.79767 25.8768 9.74346 25.931C9.68925 25.9852 9.61573 26.0156 9.53906 26.0156H8.38281C8.30615 26.0156 8.23262 25.9852 8.17841 25.931C8.1242 25.8768 8.09375 25.8032 8.09375 25.7266V24.5703C8.09375 24.4936 8.1242 24.4201 8.17841 24.3659C8.23262 24.3117 8.30615 24.2812 8.38281 24.2812H9.53906C9.61573 24.2812 9.68925 24.3117 9.74346 24.3659C9.79767 24.4201 9.82812 24.4936 9.82812 24.5703V25.7266Z" fill="black"/>
<path d="M9.53906 28.3281H8.38281C7.99949 28.3281 7.63187 28.4804 7.36082 28.7514C7.08977 29.0225 6.9375 29.3901 6.9375 29.7734V30.9297C6.9375 31.313 7.08977 31.6806 7.36082 31.9517C7.63187 32.2227 7.99949 32.375 8.38281 32.375H9.53906C9.92238 32.375 10.29 32.2227 10.5611 31.9517C10.8321 31.6806 10.9844 31.313 10.9844 30.9297V29.7734C10.9844 29.3901 10.8321 29.0225 10.5611 28.7514C10.29 28.4804 9.92238 28.3281 9.53906 28.3281V28.3281ZM9.82812 30.9297C9.82812 31.0064 9.79767 31.0799 9.74346 31.1341C9.68925 31.1883 9.61573 31.2188 9.53906 31.2188H8.38281C8.30615 31.2188 8.23262 31.1883 8.17841 31.1341C8.1242 31.0799 8.09375 31.0064 8.09375 30.9297V29.7734C8.09375 29.6968 8.1242 29.6232 8.17841 29.569C8.23262 29.5148 8.30615 29.4844 8.38281 29.4844H9.53906C9.61573 29.4844 9.68925 29.5148 9.74346 29.569C9.79767 29.6232 9.82812 29.6968 9.82812 29.7734V30.9297Z" fill="black"/>
<path d="M14.4531 27.1719H12.1406C11.9873 27.1719 11.8402 27.2328 11.7318 27.3412C11.6234 27.4496 11.5625 27.5967 11.5625 27.75V31.7969C11.5625 31.9502 11.6234 32.0973 11.7318 32.2057C11.8402 32.3141 11.9873 32.375 12.1406 32.375H14.4531C14.6065 32.375 14.7535 32.3141 14.8619 32.2057C14.9703 32.0973 15.0312 31.9502 15.0312 31.7969V27.75C15.0312 27.5967 14.9703 27.4496 14.8619 27.3412C14.7535 27.2328 14.6065 27.1719 14.4531 27.1719ZM13.875 31.2188H12.7188V28.3281H13.875V31.2188Z" fill="black"/>
<path d="M11.5625 15.6094H10.4062C10.0996 15.6094 9.8055 15.7312 9.58866 15.948C9.37182 16.1649 9.25 16.459 9.25 16.7656V19.0781C9.25 19.3848 9.37182 19.6789 9.58866 19.8957C9.8055 20.1126 10.0996 20.2344 10.4062 20.2344H11.5625C11.8692 20.2344 12.1633 20.1126 12.3801 19.8957C12.5969 19.6789 12.7188 19.3848 12.7188 19.0781V16.7656C12.7188 16.459 12.5969 16.1649 12.3801 15.948C12.1633 15.7312 11.8692 15.6094 11.5625 15.6094ZM10.4062 19.0781V16.7656H11.5625V19.0781H10.4062Z" fill="black"/>
<path d="M14.4531 23.125H12.1406C11.9873 23.125 11.8402 23.1859 11.7318 23.2943C11.6234 23.4027 11.5625 23.5498 11.5625 23.7031V25.4375C11.5625 25.5908 11.6234 25.7379 11.7318 25.8463C11.8402 25.9547 11.9873 26.0156 12.1406 26.0156H14.4531C14.6065 26.0156 14.7535 25.9547 14.8619 25.8463C14.9703 25.7379 15.0312 25.5908 15.0312 25.4375V23.7031C15.0312 23.5498 14.9703 23.4027 14.8619 23.2943C14.7535 23.1859 14.6065 23.125 14.4531 23.125ZM13.875 24.8594H12.7188V24.2812H13.875V24.8594Z" fill="black"/>
<path d="M33.2422 15.4556L32.2386 15.2874C32.1443 15.2741 32.0553 15.236 31.9805 15.1771C31.9058 15.1182 31.848 15.0406 31.8131 14.952L31.7101 14.7011C31.6719 14.6125 31.6575 14.5155 31.6682 14.4196C31.679 14.3236 31.7145 14.2322 31.7714 14.1542L32.3629 13.3316C32.6032 12.9976 32.7163 12.5887 32.6815 12.1787C32.6467 11.7687 32.4664 11.3846 32.1732 11.096L31.1129 10.0351C30.8241 9.74036 30.4391 9.55902 30.0279 9.52401C29.6167 9.489 29.2066 9.60265 28.8721 9.84431L28.0524 10.4328C27.9702 10.4919 27.8738 10.5279 27.773 10.5371C27.6722 10.5462 27.5709 10.5282 27.4794 10.4849L27.2545 10.393C27.1653 10.3577 27.087 10.2994 27.0278 10.2239C26.9686 10.1484 26.9305 10.0585 26.9175 9.96341L26.7498 8.96441C26.6837 8.55879 26.475 8.19007 26.1613 7.92451C25.8477 7.65896 25.4496 7.51398 25.0386 7.51562H24.287C23.5222 5.684 22.066 4.22781 20.2344 3.46297V2.89062C20.2344 2.12398 19.9298 1.38874 19.3877 0.846644C18.8456 0.304547 18.1104 0 17.3437 0C16.5771 0 15.8419 0.304547 15.2998 0.846644C14.7577 1.38874 14.4531 2.12398 14.4531 2.89062V3.46875C13.0843 4.04057 11.915 5.00418 11.0921 6.23849C10.2692 7.47281 9.82949 8.92279 9.82812 10.4062V11.5625H1.73437C1.27439 11.5625 0.833245 11.7452 0.507987 12.0705C0.182728 12.3957 0 12.8369 0 13.2969V32.9531C0 33.4131 0.182728 33.8543 0.507987 34.1795C0.833245 34.5048 1.27439 34.6875 1.73437 34.6875H15.6094C16.0694 34.6875 16.5105 34.5048 16.8358 34.1795C17.161 33.8543 17.3437 33.4131 17.3437 32.9531V25.7L17.4524 25.8087C17.7412 26.1032 18.1261 26.2845 18.5372 26.3195C18.9482 26.3545 19.3582 26.2409 19.6927 25.9994L20.5124 25.4109C20.5946 25.3519 20.6911 25.3159 20.7918 25.3068C20.8926 25.2976 20.9939 25.3156 21.0854 25.3589L21.3103 25.4508C21.3995 25.486 21.4778 25.5444 21.537 25.6199C21.5962 25.6954 21.6343 25.7853 21.6473 25.8803L21.815 26.8793C21.8811 27.2846 22.0894 27.653 22.4026 27.9185C22.7158 28.184 23.1133 28.3292 23.5239 28.3281H25.0386C25.4486 28.3292 25.8457 28.1845 26.1588 27.9197C26.4719 27.6549 26.6806 27.2874 26.7475 26.8828L26.9158 25.8792C26.929 25.785 26.9671 25.6959 27.026 25.6212C27.0849 25.5464 27.1626 25.4886 27.2511 25.4537L27.502 25.3508C27.5906 25.3124 27.6876 25.2978 27.7836 25.3086C27.8795 25.3193 27.971 25.355 28.0489 25.4121L28.8716 26.0035C29.2054 26.2441 29.6144 26.3573 30.0245 26.3225C30.4345 26.2877 30.8186 26.1073 31.1072 25.8139L32.168 24.7536C32.4624 24.4645 32.6436 24.0796 32.6786 23.6685C32.7136 23.2574 32.6001 22.8474 32.3588 22.5128L31.7703 21.693C31.7114 21.6108 31.6755 21.5143 31.6663 21.4136C31.6572 21.3129 31.6751 21.2115 31.7182 21.1201L31.8102 20.8952C31.8454 20.8059 31.9038 20.7277 31.9793 20.6684C32.0547 20.6092 32.1446 20.5711 32.2397 20.5581L33.2387 20.3905C33.6443 20.3243 34.013 20.1156 34.2786 19.802C34.5442 19.4883 34.6891 19.0902 34.6875 18.6792V17.1645C34.6886 16.7545 34.5438 16.3574 34.279 16.0443C34.0142 15.7312 33.6467 15.5226 33.2422 15.4556ZM17.3437 20.2344H19.5742C19.4464 20.7293 19.1582 21.168 18.7546 21.4818C18.3511 21.7956 17.8549 21.9668 17.3437 21.9688V20.2344ZM27.0025 19.2475L24.8594 17.1044V13.9212C25.524 14.0157 26.1546 14.274 26.6945 14.673C27.2343 15.0721 27.6663 15.5992 27.9515 16.2069C28.2367 16.8145 28.3662 17.4837 28.3282 18.1539C28.2902 18.8241 28.086 19.4743 27.7339 20.0459C27.3819 20.6174 26.8931 21.0924 26.3116 21.4278C25.7302 21.7633 25.0744 21.9488 24.4033 21.9675C23.7323 21.9862 23.0672 21.8375 22.468 21.535C21.8687 21.2324 21.3542 20.7854 20.9709 20.2344H26.5937C26.7081 20.2344 26.8198 20.2004 26.9149 20.1369C27.0099 20.0734 27.084 19.9831 27.1277 19.8775C27.1715 19.7718 27.1829 19.6556 27.1606 19.5435C27.1383 19.4314 27.0833 19.3284 27.0025 19.2475V19.2475ZM15.6094 2.89062C15.6094 2.43064 15.7921 1.9895 16.1174 1.66424C16.4426 1.33898 16.8838 1.15625 17.3437 1.15625C17.8037 1.15625 18.2449 1.33898 18.5701 1.66424C18.8954 1.9895 19.0781 2.43064 19.0781 2.89062V3.09817C18.5099 2.96247 17.9279 2.89283 17.3437 2.89062C16.7594 2.89271 16.1773 2.96314 15.6094 3.10048V2.89062ZM10.9844 10.4062C10.9844 8.71964 11.6544 7.10211 12.847 5.90949C14.0396 4.71688 15.6571 4.04688 17.3437 4.04688C19.0304 4.04688 20.6479 4.71688 21.8405 5.90949C23.0331 7.10211 23.7031 8.71964 23.7031 10.4062V17.3438C23.7032 17.4971 23.7641 17.6441 23.8725 17.7525L25.1982 19.0781H17.3437V13.2969C17.3437 12.8369 17.161 12.3957 16.8358 12.0705C16.5105 11.7452 16.0694 11.5625 15.6094 11.5625H10.9844V10.4062ZM16.1875 32.9531C16.1875 33.1065 16.1266 33.2535 16.0182 33.3619C15.9097 33.4703 15.7627 33.5312 15.6094 33.5312H1.73437C1.58105 33.5312 1.434 33.4703 1.32558 33.3619C1.21716 33.2535 1.15625 33.1065 1.15625 32.9531V13.2969C1.15625 13.1435 1.21716 12.9965 1.32558 12.8881C1.434 12.7797 1.58105 12.7188 1.73437 12.7188H15.6094C15.7627 12.7188 15.9097 12.7797 16.0182 12.8881C16.1266 12.9965 16.1875 13.1435 16.1875 13.2969V32.9531ZM33.5312 18.6792C33.5308 18.8157 33.4821 18.9476 33.3937 19.0516C33.3054 19.1556 33.1831 19.225 33.0485 19.2475L32.0512 19.4152C31.7575 19.462 31.4812 19.5849 31.2496 19.7715C31.018 19.958 30.8391 20.2019 30.7308 20.4789L30.6487 20.679C30.5313 20.9517 30.4863 21.2502 30.5181 21.5454C30.5499 21.8407 30.6574 22.1227 30.8302 22.3642L31.4188 23.1828C31.4986 23.2948 31.5358 23.4316 31.5239 23.5686C31.5119 23.7056 31.4515 23.8339 31.3534 23.9303L30.2868 24.997C30.191 25.0944 30.0636 25.1544 29.9274 25.1661C29.7913 25.1777 29.6554 25.1403 29.5445 25.0606L28.7218 24.4697C28.4846 24.2989 28.2075 24.1919 27.9171 24.1589C27.6267 24.1259 27.3327 24.168 27.0632 24.2812L26.8371 24.3737C26.5608 24.4819 26.3174 24.6602 26.131 24.8912C25.9447 25.1222 25.8218 25.3977 25.7745 25.6907L25.6069 26.6915C25.5839 26.8256 25.5143 26.9474 25.4103 27.0353C25.3064 27.1231 25.1747 27.1715 25.0386 27.1719H23.5239C23.3874 27.1714 23.2555 27.1227 23.1515 27.0344C23.0475 26.946 22.9781 26.8237 22.9556 26.6891L22.7879 25.6919C22.7411 25.3982 22.6183 25.1218 22.4317 24.8902C22.2451 24.6586 22.0012 24.4798 21.7242 24.3714L21.5242 24.2893C21.2514 24.1721 20.9529 24.1272 20.6577 24.159C20.3625 24.1908 20.0805 24.2982 19.8389 24.4709L19.0203 25.0594C18.9083 25.1392 18.7715 25.1765 18.6345 25.1645C18.4975 25.1525 18.3693 25.0921 18.2728 24.9941L17.3437 24.065V23.125C17.9612 23.1245 18.5674 22.9593 19.0996 22.6462C19.6318 22.3332 20.0709 21.8838 20.3714 21.3444C20.928 21.9806 21.6314 22.4716 22.4206 22.7747C23.2098 23.0778 24.061 23.1838 24.9005 23.0837C25.7399 22.9836 26.5423 22.6804 27.2381 22.2002C27.9339 21.72 28.5021 21.0775 28.8935 20.3282C29.2849 19.5788 29.4878 18.7454 29.4844 17.9C29.481 17.0546 29.2716 16.2228 28.8742 15.4766C28.4769 14.7304 27.9035 14.0924 27.2039 13.6178C26.5044 13.1432 25.6996 12.8463 24.8594 12.7529V10.4062C24.8572 9.82206 24.7875 9.24009 24.6518 8.67188H25.0386C25.1751 8.67232 25.307 8.72103 25.411 8.80938C25.515 8.89773 25.5844 9.02002 25.6069 9.15461L25.7745 10.1519C25.8214 10.4456 25.9442 10.7219 26.1308 10.9535C26.3174 11.1852 26.5613 11.364 26.8383 11.4723L27.0383 11.5544C27.311 11.6721 27.6095 11.7173 27.9048 11.6855C28.2001 11.6537 28.4822 11.546 28.7236 11.3729L29.5422 10.7843C29.6542 10.7045 29.791 10.6673 29.928 10.6793C30.065 10.6912 30.1932 10.7517 30.2897 10.8497L31.3563 11.9163C31.4538 12.0121 31.5138 12.1396 31.5255 12.2757C31.5371 12.4118 31.4997 12.5477 31.4199 12.6586L30.8291 13.4813C30.6586 13.7186 30.5517 13.9957 30.5187 14.2861C30.4857 14.5764 30.5277 14.8704 30.6406 15.1399L30.7331 15.366C30.8413 15.6423 31.0196 15.8857 31.2506 16.0721C31.4815 16.2584 31.7571 16.3813 32.0501 16.4286L33.0508 16.5962C33.185 16.6192 33.3067 16.6889 33.3946 16.7928C33.4825 16.8968 33.5309 17.0284 33.5312 17.1645V18.6792Z" fill="black"/>
</svg>
