<svg width="38" height="32" viewBox="0 0 38 32" fill="none" xmlns="http://www.w3.org/2000/svg">
<path d="M32.6656 6.02652C31.1856 5.91289 29.511 5.57668 27.6881 5.02738C25.4981 4.36728 23.3723 4.46919 21.3696 5.33005C21.0871 5.45147 20.9567 5.77885 21.078 6.06133C21.1994 6.34365 21.5264 6.47443 21.8093 6.35293C23.5646 5.59835 25.4346 5.51092 27.3669 6.09331C29.2665 6.66584 31.0206 7.01674 32.5804 7.13653C32.5948 7.13772 32.6093 7.13816 32.6236 7.13816C32.9117 7.13816 33.1556 6.91618 33.178 6.62413C33.2015 6.3176 32.9721 6.05004 32.6656 6.02652V6.02652Z" fill="black"/>
<path d="M32.6655 8.39224C31.1859 8.27868 29.5113 7.94255 27.6881 7.39311C25.4981 6.73301 23.3723 6.83491 21.3696 7.69577C21.0871 7.81719 20.9567 8.14457 21.078 8.42705C21.1994 8.70945 21.5264 8.84015 21.8093 8.71865C23.5646 7.96407 25.4346 7.87664 27.3669 8.45904C29.2669 9.03163 31.021 9.38261 32.5804 9.50225C32.5949 9.50344 32.6093 9.50389 32.6236 9.50389C32.9117 9.50389 33.1556 9.2819 33.178 8.98977C33.2015 8.68325 32.9721 8.41577 32.6655 8.39224V8.39224Z" fill="black"/>
<path d="M32.6656 20.221C31.1856 20.1074 29.5109 19.7712 27.6881 19.2218C25.4983 18.5617 23.3726 18.6637 21.3696 19.5246C21.0871 19.646 20.9567 19.9734 21.078 20.2558C21.1994 20.5382 21.5264 20.6689 21.8093 20.5474C23.5647 19.7929 25.4347 19.7056 27.3669 20.2877C29.2664 20.8603 31.0205 21.2112 32.5804 21.331C32.5948 21.3322 32.6093 21.3327 32.6236 21.3327C32.9117 21.3327 33.1556 21.1107 33.178 20.8186C33.2015 20.5121 32.9721 20.2445 32.6656 20.221V20.221Z" fill="black"/>
<path d="M32.6656 22.5868C31.1856 22.4732 29.511 22.1369 27.6881 21.5877C25.4981 20.9276 23.3723 21.0295 21.3696 21.8903C21.0871 22.0117 20.9567 22.3391 21.078 22.6216C21.1994 22.904 21.5264 23.0347 21.8093 22.9132C23.5646 22.1586 25.4346 22.0712 27.3669 22.6536C29.2665 23.2261 31.0206 23.577 32.5804 23.6968C32.5948 23.698 32.6093 23.6984 32.6236 23.6984C32.9117 23.6984 33.1556 23.4765 33.178 23.1844C33.2015 22.8779 32.9721 22.6103 32.6656 22.5868V22.5868Z" fill="black"/>
<path d="M32.6656 10.758C31.1856 10.6444 29.5109 10.3082 27.6881 9.75879C25.4983 9.09877 23.3726 9.20059 21.3696 10.0615C21.0871 10.183 20.9567 10.5103 21.078 10.7928C21.1994 11.0751 21.5264 11.2058 21.8093 11.0844C23.5647 10.3298 25.4347 10.2425 27.3669 10.8247C29.2664 11.3972 31.0205 11.7482 32.5804 11.868C32.5948 11.8692 32.6093 11.8696 32.6236 11.8696C32.9117 11.8696 33.1556 11.6477 33.178 11.3556C33.2015 11.0491 32.9721 10.7815 32.6656 10.758V10.758Z" fill="black"/>
<path d="M32.6655 15.4895C31.1859 15.376 29.5113 15.0398 27.6881 14.4904C25.4983 13.8303 23.3724 13.9322 21.3696 14.7931C21.0871 14.9145 20.9567 15.2419 21.078 15.5243C21.1994 15.8067 21.5264 15.9374 21.8093 15.8159C23.5646 15.0614 25.4346 14.974 27.3669 15.5563C29.2669 16.1289 31.021 16.4799 32.5804 16.5996C32.5949 16.6007 32.6093 16.6012 32.6236 16.6012C32.9117 16.6012 33.1556 16.3792 33.178 16.0871C33.2015 15.7805 32.9721 15.5131 32.6655 15.4895V15.4895Z" fill="black"/>
<path d="M32.6656 13.1238C31.1856 13.0102 29.511 12.674 27.6881 12.1247C25.4983 11.4646 23.3724 11.5665 21.3696 12.4273C21.0871 12.5488 20.9567 12.8761 21.078 13.1586C21.1994 13.4409 21.5264 13.5717 21.8093 13.4502C23.5649 12.6956 25.4347 12.6083 27.3669 13.1906C29.2665 13.7631 31.0206 14.114 32.5804 14.2338C32.5948 14.235 32.6093 14.2355 32.6236 14.2355C32.9117 14.2355 33.1556 14.0135 33.178 13.7214C33.2015 13.4149 32.9721 13.1473 32.6656 13.1238V13.1238Z" fill="black"/>
<path d="M32.6655 17.8551C31.1857 17.7417 29.511 17.4055 27.6881 16.8561C25.4983 16.1961 23.3726 16.2979 21.3696 17.1588C21.0871 17.2802 20.9567 17.6076 21.078 17.8901C21.1994 18.1724 21.5264 18.3031 21.8093 18.1817C23.5647 17.4271 25.4347 17.3398 27.3669 17.922C29.2666 18.4946 31.0207 18.8456 32.5804 18.9653C32.5949 18.9664 32.6093 18.9669 32.6236 18.9669C32.9117 18.9669 33.1556 18.7449 33.178 18.4528C33.2015 18.1462 32.9721 17.8787 32.6655 17.8551V17.8551Z" fill="black"/>
<path d="M5.37644 7.13804C5.39069 7.13804 5.40517 7.13752 5.41964 7.1364C6.9795 7.01669 8.73351 6.66571 10.6331 6.09319C12.5654 5.51086 14.4353 5.59815 16.1907 6.3528C16.4731 6.47422 16.8006 6.3436 16.922 6.0612C17.0434 5.77872 16.9129 5.45134 16.6304 5.32992C14.6277 4.46898 12.5018 4.36723 10.3119 5.02725C8.48896 5.57655 6.81436 5.91276 5.33444 6.02639C5.02791 6.04984 4.7985 6.31748 4.8221 6.624C4.84444 6.91605 5.0884 7.13804 5.37644 7.13804V7.13804Z" fill="black"/>
<path d="M5.37644 9.50385C5.39069 9.50385 5.40517 9.50333 5.41957 9.50221C6.97905 9.38265 8.73314 9.03159 10.6331 8.459C12.5654 7.87668 14.4353 7.96388 16.1907 8.71861C16.4731 8.83996 16.8006 8.70941 16.922 8.42701C17.0434 8.14453 16.9129 7.81715 16.6304 7.69573C14.6277 6.8348 12.5018 6.73312 10.3119 7.39307C8.48866 7.94251 6.81399 8.27865 5.33451 8.3922C5.02791 8.41565 4.7985 8.68321 4.8221 8.98973C4.84444 9.28186 5.0884 9.50385 5.37644 9.50385V9.50385Z" fill="black"/>
<path d="M5.37644 21.3327C5.39069 21.3327 5.40517 21.3322 5.41964 21.3311C6.97957 21.2114 8.73358 20.8603 10.6331 20.2878C12.5655 19.7054 14.4353 19.7929 16.1907 20.5475C16.4731 20.6689 16.8006 20.5383 16.922 20.2559C17.0434 19.9734 16.9129 19.6461 16.6304 19.5246C14.6277 18.6637 12.5018 18.5619 10.3119 19.2219C8.48903 19.7713 6.81443 20.1075 5.33444 20.2211C5.02791 20.2446 4.7985 20.5122 4.8221 20.8187C4.84444 21.1108 5.0884 21.3327 5.37644 21.3327V21.3327Z" fill="black"/>
<path d="M5.37644 23.6985C5.39069 23.6985 5.40517 23.6979 5.41964 23.6968C6.97949 23.5771 8.73351 23.2261 10.6331 22.6536C12.5654 22.0713 14.4353 22.1585 16.1907 22.9132C16.4731 23.0345 16.8006 22.904 16.922 22.6216C17.0434 22.3391 16.9129 22.0118 16.6304 21.8903C14.6277 21.0294 12.5018 20.9277 10.3119 21.5877C8.48895 22.137 6.81436 22.4732 5.33444 22.5868C5.02791 22.6103 4.7985 22.8779 4.8221 23.1844C4.84444 23.4765 5.0884 23.6985 5.37644 23.6985V23.6985Z" fill="black"/>
<path d="M5.37644 11.8696C5.39069 11.8696 5.40517 11.8691 5.41964 11.868C6.97957 11.7483 8.73358 11.3972 10.6331 10.8247C12.5655 10.2423 14.4353 10.3298 16.1907 11.0844C16.4731 11.2057 16.8006 11.0752 16.922 10.7928C17.0434 10.5103 16.9129 10.1829 16.6304 10.0615C14.6277 9.20056 12.5018 9.09881 10.3119 9.75876C8.48903 10.3081 6.81443 10.6443 5.33444 10.758C5.02791 10.7814 4.7985 11.0491 4.8221 11.3556C4.84444 11.6476 5.0884 11.8696 5.37644 11.8696V11.8696Z" fill="black"/>
<path d="M5.37644 16.6011C5.39069 16.6011 5.40517 16.6006 5.41957 16.5996C6.97905 16.4799 8.73313 16.1289 10.6331 15.5563C12.5654 14.974 14.4353 15.0612 16.1907 15.8159C16.4731 15.9373 16.8006 15.8067 16.922 15.5243C17.0434 15.2418 16.9129 14.9145 16.6304 14.793C14.6277 13.9322 12.502 13.8303 10.3119 14.4904C8.48866 15.0398 6.81399 15.3759 5.33451 15.4894C5.02791 15.513 4.7985 15.7805 4.8221 16.087C4.84444 16.3792 5.0884 16.6011 5.37644 16.6011V16.6011Z" fill="black"/>
<path d="M5.37644 14.2354C5.39069 14.2354 5.40517 14.2349 5.41964 14.2338C6.97949 14.114 8.73351 13.7631 10.6331 13.1905C12.5653 12.6083 14.4352 12.6954 16.1907 13.4502C16.4731 13.5714 16.8006 13.441 16.922 13.1586C17.0434 12.8761 16.9129 12.5487 16.6304 12.4273C14.6275 11.5663 12.5018 11.4644 10.3119 12.1246C8.48895 12.6739 6.81436 13.0101 5.33444 13.1237C5.02791 13.1472 4.7985 13.4148 4.8221 13.7214C4.84444 14.0134 5.0884 14.2354 5.37644 14.2354V14.2354Z" fill="black"/>
<path d="M5.37644 18.9669C5.39069 18.9669 5.40517 18.9663 5.41957 18.9653C6.97935 18.8457 8.73336 18.4946 10.6331 17.922C12.5655 17.3395 14.4353 17.4271 16.1907 18.1817C16.4731 18.3031 16.8006 18.1725 16.922 17.8901C17.0434 17.6076 16.9129 17.2802 16.6304 17.1588C14.6277 16.2979 12.5018 16.1961 10.3119 16.8561C8.48895 17.4055 6.81421 17.7417 5.33451 17.8551C5.02791 17.8787 4.7985 18.1462 4.8221 18.4528C4.84444 18.7449 5.0884 18.9669 5.37644 18.9669V18.9669Z" fill="black"/>
<path d="M36.6405 3.92579H35.7691V3.41791C35.7691 2.70614 35.1619 2.14312 34.4508 2.19975C33.6295 2.26543 31.8309 2.26944 29.0134 1.555C28.7153 1.47923 28.4124 1.6598 28.337 1.95772C28.2614 2.25578 28.4418 2.5586 28.7397 2.63408C31.5641 3.35022 33.4528 3.39675 34.5398 3.3094C34.6031 3.30494 34.6558 3.35415 34.6558 3.41791V25.8808C32.5472 26.1083 29.7304 25.5046 27.6881 24.8892C23.1265 23.5145 20.1775 25.8763 19.5566 26.2128V3.96267C20.1581 3.39853 22.5823 1.40041 26.1903 1.98095C26.4936 2.03023 26.7795 1.82346 26.8284 1.5199C26.8773 1.21642 26.6709 0.930747 26.3673 0.881836C22.5788 0.271458 19.9645 2.12204 18.9986 2.9648C16.784 1.04415 13.6162 0.191005 10.3119 1.18703C6.76552 2.25578 4.55246 2.2799 3.54924 2.19982C2.83718 2.14267 2.23103 2.70748 2.23103 3.41791V3.92579H1.35947C0.609859 3.92579 0 4.53557 0 5.28526V27.8585C0 28.6082 0.609933 29.218 1.35955 29.218H15.7823C15.9984 29.218 16.1944 29.3372 16.2817 29.5221C17.362 31.8077 20.634 31.8161 21.7182 29.5221C21.8056 29.3374 22.0016 29.218 22.2177 29.218H36.6405C37.3901 29.218 37.9998 28.6081 37.9998 27.8585V17.3019C37.9998 16.9945 37.7507 16.7453 37.4432 16.7453C37.1357 16.7453 36.8866 16.9945 36.8866 17.3019V27.8584C36.8866 27.9942 36.7762 28.1046 36.6405 28.1046H22.2178C21.5733 28.1046 20.9822 28.4742 20.7118 29.0462C20.0314 30.4857 17.9712 30.4914 17.2882 29.0463C17.0179 28.4743 16.4269 28.1046 15.7823 28.1046H1.35955C1.22373 28.1046 1.11329 27.9942 1.11329 27.8584V5.28526C1.11329 5.14951 1.22373 5.03908 1.35947 5.03908H2.23103V26.3559C2.23103 26.6084 2.40106 26.8294 2.64525 26.894C2.75108 26.922 5.30066 27.5623 10.6332 25.9552C13.2133 25.1776 15.7035 25.6544 17.6793 27.0477C18.4432 27.5863 19.5067 27.622 20.321 27.0477C21.5142 26.2062 24.016 24.9455 27.367 25.9552C32.6998 27.5622 35.2491 26.9219 35.355 26.894C35.5992 26.8294 35.7692 26.6084 35.7692 26.3559V5.03908H36.6406C36.7763 5.03908 36.8868 5.14951 36.8868 5.28526V14.7043C36.8868 15.0118 37.1359 15.2609 37.4434 15.2609C37.7509 15.2609 38.0001 15.0118 38.0001 14.7043V5.28526C38 4.53557 37.3901 3.92579 36.6405 3.92579V3.92579ZM3.34432 3.41791C3.34432 3.35549 3.39531 3.30487 3.46025 3.3094C4.54162 3.39638 6.91181 3.37441 10.6332 2.25289C13.6471 1.34489 16.5263 2.16805 18.4434 3.96312V26.2128C18.1241 26.04 14.9941 23.4779 10.3119 24.8893C10.0117 24.9798 9.68174 25.0737 9.37641 25.1553C9.3727 25.1563 9.36898 25.1573 9.36535 25.1583C7.57295 25.6364 5.18859 26.0797 3.34424 25.8811C3.34432 24.3339 3.34432 3.83279 3.34432 3.41791V3.41791Z" fill="black"/>
</svg>
