<svg width="35" height="35" viewBox="0 0 35 35" fill="none" xmlns="http://www.w3.org/2000/svg">
<path d="M12.2969 14.0312H5.35938C4.59302 14.0322 3.85831 14.337 3.31641 14.8789C2.77451 15.4208 2.46967 16.1555 2.46875 16.9219V19.2344C2.46967 20.0007 2.77451 20.7354 3.31641 21.2773C3.85831 21.8192 4.59302 22.1241 5.35938 22.125H12.2969C13.0632 22.1241 13.7979 21.8192 14.3398 21.2773C14.8817 20.7354 15.1866 20.0007 15.1875 19.2344V16.9219C15.1866 16.1555 14.8817 15.4208 14.3398 14.8789C13.7979 14.337 13.0632 14.0322 12.2969 14.0312ZM14.0312 19.2344C14.0312 19.6944 13.8485 20.1355 13.5233 20.4608C13.198 20.786 12.7569 20.9688 12.2969 20.9688H5.35938C4.89939 20.9688 4.45824 20.786 4.13299 20.4608C3.80773 20.1355 3.625 19.6944 3.625 19.2344V16.9219C3.625 16.4619 3.80773 16.0207 4.13299 15.6955C4.45824 15.3702 4.89939 15.1875 5.35938 15.1875H12.2969C12.7569 15.1875 13.198 15.3702 13.5233 15.6955C13.8485 16.0207 14.0312 16.4619 14.0312 16.9219V19.2344Z" fill="#F64569"/>
<path d="M5.07031 23.2812H3.91406C3.53074 23.2812 3.16312 23.4335 2.89207 23.7046C2.62102 23.9756 2.46875 24.3432 2.46875 24.7266V25.8828C2.46875 26.2661 2.62102 26.6338 2.89207 26.9048C3.16312 27.1759 3.53074 27.3281 3.91406 27.3281H5.07031C5.45363 27.3281 5.82125 27.1759 6.0923 26.9048C6.36335 26.6338 6.51562 26.2661 6.51562 25.8828V24.7266C6.51562 24.3432 6.36335 23.9756 6.0923 23.7046C5.82125 23.4335 5.45363 23.2812 5.07031 23.2812ZM5.35938 25.8828C5.35938 25.9595 5.32892 26.033 5.27471 26.0872C5.2205 26.1414 5.14698 26.1719 5.07031 26.1719H3.91406C3.8374 26.1719 3.76387 26.1414 3.70966 26.0872C3.65545 26.033 3.625 25.9595 3.625 25.8828V24.7266C3.625 24.6499 3.65545 24.5764 3.70966 24.5222C3.76387 24.468 3.8374 24.4375 3.91406 24.4375H5.07031C5.14698 24.4375 5.2205 24.468 5.27471 24.5222C5.32892 24.5764 5.35938 24.6499 5.35938 24.7266V25.8828Z" fill="#F64569"/>
<path d="M5.07031 28.4844H3.91406C3.53074 28.4844 3.16312 28.6366 2.89207 28.9077C2.62102 29.1787 2.46875 29.5464 2.46875 29.9297V31.0859C2.46875 31.4693 2.62102 31.8369 2.89207 32.1079C3.16312 32.379 3.53074 32.5312 3.91406 32.5312H5.07031C5.45363 32.5312 5.82125 32.379 6.0923 32.1079C6.36335 31.8369 6.51562 31.4693 6.51562 31.0859V29.9297C6.51562 29.5464 6.36335 29.1787 6.0923 28.9077C5.82125 28.6366 5.45363 28.4844 5.07031 28.4844ZM5.35938 31.0859C5.35938 31.1626 5.32892 31.2361 5.27471 31.2903C5.2205 31.3445 5.14698 31.375 5.07031 31.375H3.91406C3.8374 31.375 3.76387 31.3445 3.70966 31.2903C3.65545 31.2361 3.625 31.1626 3.625 31.0859V29.9297C3.625 29.853 3.65545 29.7795 3.70966 29.7253C3.76387 29.6711 3.8374 29.6406 3.91406 29.6406H5.07031C5.14698 29.6406 5.2205 29.6711 5.27471 29.7253C5.32892 29.7795 5.35938 29.853 5.35938 29.9297V31.0859Z" fill="#F64569"/>
<path d="M9.69531 23.2812H8.53906C8.15574 23.2812 7.78812 23.4335 7.51707 23.7046C7.24602 23.9756 7.09375 24.3432 7.09375 24.7266V25.8828C7.09375 26.2661 7.24602 26.6338 7.51707 26.9048C7.78812 27.1759 8.15574 27.3281 8.53906 27.3281H9.69531C10.0786 27.3281 10.4463 27.1759 10.7173 26.9048C10.9884 26.6338 11.1406 26.2661 11.1406 25.8828V24.7266C11.1406 24.3432 10.9884 23.9756 10.7173 23.7046C10.4463 23.4335 10.0786 23.2812 9.69531 23.2812ZM9.98438 25.8828C9.98438 25.9595 9.95392 26.033 9.89971 26.0872C9.8455 26.1414 9.77198 26.1719 9.69531 26.1719H8.53906C8.4624 26.1719 8.38887 26.1414 8.33466 26.0872C8.28045 26.033 8.25 25.9595 8.25 25.8828V24.7266C8.25 24.6499 8.28045 24.5764 8.33466 24.5222C8.38887 24.468 8.4624 24.4375 8.53906 24.4375H9.69531C9.77198 24.4375 9.8455 24.468 9.89971 24.5222C9.95392 24.5764 9.98438 24.6499 9.98438 24.7266V25.8828Z" fill="#F64569"/>
<path d="M9.69531 28.4844H8.53906C8.15574 28.4844 7.78812 28.6366 7.51707 28.9077C7.24602 29.1787 7.09375 29.5464 7.09375 29.9297V31.0859C7.09375 31.4693 7.24602 31.8369 7.51707 32.1079C7.78812 32.379 8.15574 32.5312 8.53906 32.5312H9.69531C10.0786 32.5312 10.4463 32.379 10.7173 32.1079C10.9884 31.8369 11.1406 31.4693 11.1406 31.0859V29.9297C11.1406 29.5464 10.9884 29.1787 10.7173 28.9077C10.4463 28.6366 10.0786 28.4844 9.69531 28.4844ZM9.98438 31.0859C9.98438 31.1626 9.95392 31.2361 9.89971 31.2903C9.8455 31.3445 9.77198 31.375 9.69531 31.375H8.53906C8.4624 31.375 8.38887 31.3445 8.33466 31.2903C8.28045 31.2361 8.25 31.1626 8.25 31.0859V29.9297C8.25 29.853 8.28045 29.7795 8.33466 29.7253C8.38887 29.6711 8.4624 29.6406 8.53906 29.6406H9.69531C9.77198 29.6406 9.8455 29.6711 9.89971 29.7253C9.95392 29.7795 9.98438 29.853 9.98438 29.9297V31.0859Z" fill="#F64569"/>
<path d="M14.6094 27.3281H12.2969C12.1435 27.3281 11.9965 27.389 11.8881 27.4975C11.7797 27.6059 11.7188 27.7529 11.7188 27.9062V31.9531C11.7188 32.1065 11.7797 32.2535 11.8881 32.3619C11.9965 32.4703 12.1435 32.5312 12.2969 32.5312H14.6094C14.7627 32.5312 14.9098 32.4703 15.0182 32.3619C15.1266 32.2535 15.1875 32.1065 15.1875 31.9531V27.9062C15.1875 27.7529 15.1266 27.6059 15.0182 27.4975C14.9098 27.389 14.7627 27.3281 14.6094 27.3281ZM14.0312 31.375H12.875V28.4844H14.0312V31.375Z" fill="#F64569"/>
<path d="M11.7188 15.7656H10.5625C10.2558 15.7656 9.96175 15.8874 9.74491 16.1043C9.52807 16.3211 9.40625 16.6152 9.40625 16.9219V19.2344C9.40625 19.541 9.52807 19.8351 9.74491 20.052C9.96175 20.2688 10.2558 20.3906 10.5625 20.3906H11.7188C12.0254 20.3906 12.3195 20.2688 12.5363 20.052C12.7532 19.8351 12.875 19.541 12.875 19.2344V16.9219C12.875 16.6152 12.7532 16.3211 12.5363 16.1043C12.3195 15.8874 12.0254 15.7656 11.7188 15.7656ZM10.5625 19.2344V16.9219H11.7188V19.2344H10.5625Z" fill="#F64569"/>
<path d="M14.6094 23.2812H12.2969C12.1435 23.2812 11.9965 23.3422 11.8881 23.4506C11.7797 23.559 11.7188 23.706 11.7188 23.8594V25.5938C11.7188 25.7471 11.7797 25.8941 11.8881 26.0025C11.9965 26.111 12.1435 26.1719 12.2969 26.1719H14.6094C14.7627 26.1719 14.9098 26.111 15.0182 26.0025C15.1266 25.8941 15.1875 25.7471 15.1875 25.5938V23.8594C15.1875 23.706 15.1266 23.559 15.0182 23.4506C14.9098 23.3422 14.7627 23.2812 14.6094 23.2812ZM14.0312 25.0156H12.875V24.4375H14.0312V25.0156Z" fill="#F64569"/>
<path d="M33.3984 15.6118L32.3948 15.4436C32.3006 15.4303 32.2115 15.3923 32.1368 15.3334C32.062 15.2745 32.0043 15.1968 31.9693 15.1083L31.8664 14.8574C31.8282 14.7688 31.8137 14.6717 31.8245 14.5758C31.8352 14.4799 31.8708 14.3884 31.9277 14.3105L32.5191 13.4878C32.7595 13.1539 32.8725 12.7449 32.8377 12.3349C32.803 11.9249 32.6227 11.5409 32.3295 11.2522L31.2692 10.1913C30.9804 9.89661 30.5954 9.71527 30.1842 9.68026C29.773 9.64525 29.3629 9.7589 29.0284 10.0006L28.2086 10.5891C28.1265 10.6482 28.03 10.6842 27.9292 10.6933C27.8285 10.7025 27.7271 10.6845 27.6357 10.6411L27.4108 10.5492C27.3215 10.514 27.2433 10.4556 27.184 10.3801C27.1248 10.3046 27.0867 10.2147 27.0737 10.1197L26.9061 9.12066C26.8399 8.71504 26.6312 8.34632 26.3176 8.08076C26.0039 7.81521 25.6058 7.67023 25.1948 7.67188H24.4433C23.6784 5.84025 22.2222 4.38406 20.3906 3.61922V3.04688C20.3906 2.28023 20.0861 1.54499 19.544 1.00289C19.0019 0.460797 18.2666 0.15625 17.5 0.15625C16.7334 0.15625 15.9981 0.460797 15.456 1.00289C14.9139 1.54499 14.6094 2.28023 14.6094 3.04688V3.625C13.2405 4.19683 12.0712 5.16043 11.2484 6.39474C10.4255 7.62906 9.98574 9.07904 9.98437 10.5625V11.7188H1.89062C1.43064 11.7188 0.989495 11.9015 0.664237 12.2267C0.338978 12.552 0.15625 12.9931 0.15625 13.4531V33.1094C0.15625 33.5694 0.338978 34.0105 0.664237 34.3358C0.989495 34.661 1.43064 34.8438 1.89062 34.8438H15.7656C16.2256 34.8438 16.6668 34.661 16.992 34.3358C17.3173 34.0105 17.5 33.5694 17.5 33.1094V25.8562L17.6087 25.9649C17.8975 26.2595 18.2824 26.4407 18.6934 26.4757C19.1045 26.5107 19.5145 26.3972 19.8489 26.1557L20.6687 25.5672C20.7509 25.5081 20.8473 25.4722 20.9481 25.463C21.0488 25.4539 21.1502 25.4719 21.2416 25.5151L21.4665 25.607C21.5558 25.6423 21.634 25.7006 21.6933 25.7761C21.7525 25.8516 21.7906 25.9415 21.8036 26.0366L21.9712 27.0356C22.0373 27.4408 22.2457 27.8092 22.5588 28.0747C22.872 28.3402 23.2696 28.4855 23.6802 28.4844H25.1948C25.6049 28.4855 26.0019 28.3407 26.315 28.0759C26.6281 27.8111 26.8368 27.4436 26.9038 27.0391L27.072 26.0354C27.0853 25.9412 27.1233 25.8522 27.1822 25.7774C27.2411 25.7027 27.3188 25.6449 27.4073 25.6099L27.6582 25.507C27.7468 25.4686 27.8439 25.4541 27.9398 25.4648C28.0358 25.4756 28.1272 25.5113 28.2051 25.5683L29.0278 26.1597C29.3617 26.4004 29.7706 26.5135 30.1807 26.4787C30.5908 26.4439 30.9748 26.2635 31.2634 25.9701L32.3243 24.9098C32.6187 24.6208 32.7998 24.2359 32.8348 23.8248C32.8698 23.4137 32.7564 23.0037 32.5151 22.669L31.9265 21.8492C31.8676 21.767 31.8317 21.6706 31.8226 21.5699C31.8134 21.4691 31.8313 21.3678 31.8745 21.2763L31.9664 21.0514C32.0017 20.9622 32.06 20.8839 32.1355 20.8247C32.211 20.7654 32.3009 20.7274 32.396 20.7144L33.395 20.5467C33.8006 20.4805 34.1693 20.2719 34.4349 19.9582C34.7004 19.6445 34.8454 19.2464 34.8437 18.8355V17.3208C34.8449 16.9107 34.7001 16.5137 34.4353 16.2006C34.1705 15.8875 33.803 15.6788 33.3984 15.6118ZM17.5 20.3906H19.7304C19.6026 20.8856 19.3144 21.3242 18.9109 21.638C18.5073 21.9518 18.0112 22.1231 17.5 22.125V20.3906ZM27.1587 19.4038L25.0156 17.2607V14.0775C25.6802 14.1719 26.3109 14.4303 26.8507 14.8293C27.3905 15.2283 27.8225 15.7554 28.1077 16.3631C28.3929 16.9708 28.5224 17.6399 28.4844 18.3101C28.4464 18.9803 28.2422 19.6305 27.8902 20.2021C27.5381 20.7737 27.0493 21.2486 26.4679 21.5841C25.8864 21.9196 25.2306 22.105 24.5596 22.1237C23.8886 22.1424 23.2234 21.9938 22.6242 21.6912C22.025 21.3887 21.5105 20.9417 21.1272 20.3906H26.75C26.8643 20.3906 26.9761 20.3567 27.0711 20.2932C27.1662 20.2296 27.2402 20.1393 27.284 20.0337C27.3277 19.9281 27.3392 19.8119 27.3169 19.6997C27.2946 19.5876 27.2396 19.4846 27.1587 19.4038ZM15.7656 3.04688C15.7656 2.58689 15.9483 2.14575 16.2736 1.82049C16.5989 1.49523 17.04 1.3125 17.5 1.3125C17.96 1.3125 18.4011 1.49523 18.7264 1.82049C19.0516 2.14575 19.2344 2.58689 19.2344 3.04688V3.25442C18.6662 3.11872 18.0842 3.04908 17.5 3.04688C16.9157 3.04896 16.3336 3.11939 15.7656 3.25673V3.04688ZM11.1406 10.5625C11.1406 8.87589 11.8106 7.25836 13.0032 6.06574C14.1959 4.87313 15.8134 4.20312 17.5 4.20312C19.1866 4.20312 20.8041 4.87313 21.9968 6.06574C23.1894 7.25836 23.8594 8.87589 23.8594 10.5625V17.5C23.8594 17.6533 23.9203 17.8003 24.0288 17.9087L25.3544 19.2344H17.5V13.4531C17.5 12.9931 17.3173 12.552 16.992 12.2267C16.6668 11.9015 16.2256 11.7188 15.7656 11.7188H11.1406V10.5625ZM16.3437 33.1094C16.3437 33.2627 16.2828 33.4098 16.1744 33.5182C16.066 33.6266 15.919 33.6875 15.7656 33.6875H1.89062C1.7373 33.6875 1.59025 33.6266 1.48183 33.5182C1.37341 33.4098 1.3125 33.2627 1.3125 33.1094V13.4531C1.3125 13.2998 1.37341 13.1527 1.48183 13.0443C1.59025 12.9359 1.7373 12.875 1.89062 12.875H15.7656C15.919 12.875 16.066 12.9359 16.1744 13.0443C16.2828 13.1527 16.3437 13.2998 16.3437 13.4531V33.1094ZM33.6875 18.8355C33.687 18.9719 33.6383 19.1038 33.55 19.2078C33.4616 19.3118 33.3394 19.3812 33.2048 19.4038L32.2075 19.5714C31.9138 19.6183 31.6374 19.7411 31.4058 19.9277C31.1742 20.1143 30.9954 20.3582 30.8871 20.6352L30.805 20.8352C30.6875 21.108 30.6425 21.4064 30.6743 21.7017C30.7061 21.9969 30.8137 22.279 30.9865 22.5204L31.575 23.3391C31.6548 23.4511 31.6921 23.5879 31.6801 23.7249C31.6681 23.8619 31.6077 23.9901 31.5097 24.0866L30.4431 25.1532C30.3473 25.2507 30.2198 25.3107 30.0837 25.3223C29.9475 25.334 29.8117 25.2966 29.7007 25.2168L28.8781 24.626C28.6409 24.4552 28.3638 24.3482 28.0734 24.3152C27.7829 24.2822 27.4889 24.3243 27.2194 24.4375L26.9934 24.53C26.717 24.6381 26.4736 24.8165 26.2873 25.0475C26.1009 25.2784 25.9781 25.554 25.9308 25.847L25.7631 26.8477C25.7401 26.9819 25.6705 27.1036 25.5666 27.1915C25.4626 27.2794 25.331 27.3278 25.1948 27.3281H23.6802C23.5437 27.3277 23.4118 27.279 23.3078 27.1906C23.2038 27.1023 23.1344 26.98 23.1119 26.8454L22.9442 25.8481C22.8973 25.5544 22.7745 25.2781 22.5879 25.0464C22.4013 24.8148 22.1574 24.636 21.8804 24.5277L21.6804 24.4456C21.4076 24.3283 21.1092 24.2834 20.814 24.3152C20.5188 24.347 20.2367 24.4544 19.9952 24.6271L19.1766 25.2157C19.0646 25.2955 18.9278 25.3327 18.7908 25.3207C18.6538 25.3088 18.5255 25.2484 18.429 25.1503L17.5 24.2213V23.2812C18.1175 23.2808 18.7236 23.1155 19.2559 22.8025C19.7881 22.4895 20.2271 22.04 20.5276 21.5006C21.0843 22.1369 21.7877 22.6278 22.5769 22.9309C23.3661 23.234 24.2173 23.3401 25.0567 23.24C25.8961 23.1399 26.6985 22.8366 27.3943 22.3565C28.0901 21.8763 28.6583 21.2337 29.0498 20.4844C29.4412 19.7351 29.644 18.9016 29.6406 18.0562C29.6373 17.2109 29.4278 16.379 29.0305 15.6329C28.6331 14.8867 28.0598 14.2486 27.3602 13.774C26.6606 13.2994 25.8558 13.0025 25.0156 12.9091V10.5625C25.0134 9.97831 24.9438 9.39634 24.8081 8.82812H25.1948C25.3313 8.82857 25.4632 8.87728 25.5672 8.96563C25.6712 9.05398 25.7406 9.17627 25.7631 9.31086L25.9308 10.3081C25.9777 10.6018 26.1005 10.8782 26.2871 11.1098C26.4737 11.3414 26.7175 11.5202 26.9945 11.6286L27.1946 11.7107C27.4673 11.8284 27.7658 11.8735 28.0611 11.8417C28.3564 11.8099 28.6384 11.7022 28.8798 11.5291L29.6984 10.9406C29.8104 10.8608 29.9472 10.8235 30.0842 10.8355C30.2212 10.8475 30.3495 10.9079 30.4459 11.0059L31.5126 12.0726C31.6101 12.1683 31.67 12.2958 31.6817 12.432C31.6934 12.5681 31.6559 12.7039 31.5762 12.8149L30.9853 13.6375C30.8148 13.8749 30.708 14.1519 30.675 14.4423C30.642 14.7327 30.6839 15.0267 30.7969 15.2962L30.8894 15.5222C30.9975 15.7986 31.1759 16.042 31.4068 16.2283C31.6378 16.4147 31.9134 16.5376 32.2063 16.5848L33.2071 16.7525C33.3412 16.7755 33.463 16.8451 33.5509 16.9491C33.6388 17.053 33.6871 17.1847 33.6875 17.3208V18.8355Z" fill="#F64569"/>
</svg>
