<svg width="15" height="15" viewBox="0 0 25 25" fill="none" xmlns="http://www.w3.org/2000/svg">
<g clip-path="url(#clip0)">
<path d="M23.8632 5.68135H3.87931L7.6212 1.93938C8.06499 1.49567 8.06499 0.776125 7.6212 0.332337C7.17749 -0.111451 6.45795 -0.111451 6.01416 0.332337L0.332337 6.01416C-0.111451 6.45787 -0.111451 7.17742 0.332337 7.6212L6.01416 13.303C6.23605 13.5249 6.52689 13.6359 6.81772 13.6359C7.10855 13.6359 7.39939 13.5249 7.6212 13.303C8.06499 12.8593 8.06499 12.1398 7.6212 11.696L3.87931 7.95408H23.8632C24.4908 7.95408 24.9995 7.44529 24.9995 6.81772C24.9995 6.19014 24.4908 5.68135 23.8632 5.68135Z" fill="#F64569"/>
<path d="M18.9853 11.6964C18.5416 11.2527 17.822 11.2527 17.3783 11.6964C16.9345 12.1402 16.9345 12.8597 17.3783 13.3035L21.1202 17.0455H1.13636C0.508788 17.0455 0 17.5542 0 18.1818C0 18.8094 0.508788 19.3182 1.13636 19.3182H21.1202L17.3783 23.0602C16.9345 23.5039 16.9345 24.2234 17.3783 24.6672C17.6002 24.889 17.891 25 18.1818 25C18.4727 25 18.7635 24.889 18.9853 24.6671L24.6671 18.9853C25.1109 18.5416 25.1109 17.822 24.6671 17.3783L18.9853 11.6964Z" fill="#F64569"/>
</g>
<defs>
<clipPath id="clip0">
<rect width="25" height="25" fill="white"/>
</clipPath>
</defs>
</svg>
