<svg width="29" height="29" viewBox="0 0 29 29" fill="none" xmlns="http://www.w3.org/2000/svg">
<path d="M26.0364 17.9107L23.8455 18.8221C23.7983 18.8418 23.7447 18.8383 23.7004 18.8127L21.89 17.7675C21.7721 17.6995 21.7834 17.5259 21.909 17.4736L23.3399 16.8784C23.7695 16.6997 24.0017 16.2158 23.8434 15.7783C23.6744 15.3112 23.1522 15.0848 22.6986 15.2734L19.7927 16.4822C19.7455 16.5019 19.6918 16.4984 19.6475 16.4728L19.0918 16.1519C19.0247 16.1132 18.9923 16.0329 19.0162 15.9592C19.1654 15.4993 19.2466 15.0091 19.2466 14.5001C19.2466 13.9448 19.1499 13.4119 18.9738 12.9163L19.7178 12.4868L22.6986 13.7268C23.1397 13.9102 23.6451 13.7011 23.8283 13.2608C24.0116 12.8202 23.803 12.3145 23.3624 12.1311L21.6021 11.3989L23.7706 10.1469L26.0138 11.08C26.4433 11.2587 26.9503 11.0824 27.1491 10.6618C27.3612 10.2126 27.1535 9.68244 26.7001 9.49383L25.6549 9.05901L26.3545 8.65516C26.7575 8.42248 26.9253 7.91255 26.7118 7.49908C26.4838 7.05774 25.9367 6.90085 25.5115 7.14627L24.7908 7.56235L24.9369 6.43968C24.9984 5.96651 24.6647 5.53293 24.1915 5.47136C23.7178 5.40974 23.2847 5.74352 23.2231 6.21675L22.9065 8.65023L20.738 9.90221L20.984 8.01162C21.0455 7.53839 20.7119 7.10486 20.2386 7.04329C19.7648 6.98167 19.3318 7.31545 19.2703 7.78868L18.8537 10.9902L18.1074 11.421C17.443 10.6443 16.533 10.0844 15.4985 9.8625C15.422 9.84608 15.3665 9.77981 15.3665 9.70148V9.05793C15.3665 9.00678 15.3903 8.95858 15.431 8.92749L17.9114 7.03015C18.281 6.74741 18.3817 6.22009 18.1167 5.8376C17.8337 5.42933 17.2709 5.34437 16.8809 5.64264L15.6306 6.59901C15.5225 6.68165 15.3666 6.60462 15.3666 6.46857V4.37803C15.3666 4.32689 15.3904 4.27869 15.431 4.24759L17.2963 2.82077C17.6659 2.53808 17.7666 2.01082 17.5016 1.62838C17.2187 1.22012 16.6559 1.13499 16.2657 1.43331L15.6306 1.91917C15.5225 2.00181 15.3666 1.92478 15.3666 1.78873V1.31335C15.3666 0.848105 15.009 0.447716 14.5443 0.425853C14.048 0.40246 13.6384 0.797866 13.6384 1.28894V1.78867C13.6384 1.92472 13.4825 2.00175 13.3744 1.91911L12.7587 1.44815C12.3891 1.16546 11.8539 1.20624 11.5541 1.56205C11.234 1.94194 11.2992 2.50755 11.6892 2.80593L13.574 4.24759C13.6146 4.27863 13.6384 4.32689 13.6384 4.37803V6.46851C13.6384 6.60456 13.4825 6.68165 13.3744 6.59895L12.1241 5.64258C11.7342 5.34432 11.1713 5.42928 10.8883 5.8376C10.6233 6.22009 10.724 6.74741 11.0936 7.03015L13.574 8.92743C13.6146 8.95847 13.6384 9.00673 13.6384 9.05787V9.70142C13.6384 9.7797 13.5829 9.84602 13.5064 9.86245C12.5169 10.0748 11.6413 10.5963 10.9856 11.321C10.9336 11.3784 10.8493 11.3931 10.7823 11.3543L10.2216 11.0306C10.1773 11.005 10.1474 10.9602 10.1408 10.9096L9.73471 7.78857C9.67309 7.31534 9.23967 6.98167 8.76633 7.04318C8.2931 7.10475 7.95938 7.53827 8.02095 8.01156L8.22406 9.57251C8.24162 9.70742 8.0969 9.80394 7.97909 9.73591L6.16876 8.69067C6.12446 8.66513 6.09461 8.62038 6.08799 8.56963L5.78179 6.21658C5.72011 5.74335 5.28687 5.40974 4.81341 5.47119C4.34019 5.53276 4.00646 5.96634 4.06803 6.43957L4.17123 7.23253C4.18879 7.36745 4.04407 7.46396 3.92626 7.39594L3.51471 7.15833C3.11177 6.92565 2.58621 7.03514 2.3349 7.42669C2.06654 7.84475 2.20411 8.39722 2.62943 8.64276L3.06221 8.89265C3.18002 8.96068 3.16881 9.13428 3.04318 9.1865L2.32731 9.48432C1.89746 9.66313 1.66524 10.1475 1.824 10.5852C1.99341 11.0521 2.51575 11.2777 2.96859 11.0893L5.15943 10.178C5.20667 10.1583 5.26031 10.1618 5.3046 10.1874L7.11499 11.2326C7.2328 11.3007 7.22158 11.4743 7.09596 11.5265L5.64257 12.1311C5.20197 12.3144 4.99336 12.8201 5.17665 13.2607C5.35988 13.7012 5.86551 13.91 6.30639 13.7267L9.21226 12.5179C9.2595 12.4983 9.31314 12.5017 9.35743 12.5273L9.91313 12.8482C9.98024 12.8869 10.0126 12.9673 9.98874 13.041C9.83955 13.5009 9.75827 13.9911 9.75827 14.5001C9.75827 15.0091 9.83955 15.4993 9.98874 15.9593C10.0126 16.0329 9.98024 16.1133 9.91313 16.152L9.35743 16.4729C9.31314 16.4985 9.25944 16.5019 9.21226 16.4823L6.30639 15.2735C5.85304 15.085 5.33071 15.3111 5.16158 15.7782C5.00316 16.2157 5.23544 16.6997 5.66506 16.8784L7.09601 17.4736C7.22164 17.5259 7.23291 17.6995 7.11504 17.7675L5.30465 18.8127C5.26036 18.8383 5.20667 18.8418 5.15949 18.8221L2.96859 17.9107C2.52827 17.7275 2.02224 17.936 1.8389 18.3767C1.65561 18.8173 1.86422 19.3231 2.30488 19.5063L3.04324 19.8135C3.16887 19.8657 3.18008 20.0393 3.06227 20.1074L2.64993 20.3454C2.24988 20.5764 2.08132 21.0809 2.2893 21.4934C2.44308 21.7983 2.74814 21.9698 3.06227 21.9698C3.20885 21.9698 3.35742 21.9324 3.49353 21.8539L3.92626 21.6041C4.04407 21.536 4.18879 21.6326 4.17123 21.7675L4.06803 22.5604C4.00091 23.0765 4.40226 23.5361 4.92596 23.5361C5.35359 23.5361 5.72509 23.2188 5.78179 22.7834L6.08799 20.4304C6.09456 20.3797 6.12446 20.3349 6.16876 20.3094L7.97909 19.2642C8.09696 19.1961 8.24162 19.2926 8.22406 19.4276L8.02095 20.9886C7.95938 21.4618 8.2931 21.8954 8.76633 21.9569C8.80417 21.9619 8.84178 21.9642 8.87893 21.9642C9.30657 21.9642 9.67813 21.6469 9.73477 21.2116L10.1409 18.0906C10.1474 18.0398 10.1774 17.9951 10.2216 17.9695L10.7823 17.6458C10.8494 17.6071 10.9336 17.6218 10.9856 17.6792C11.6413 18.4039 12.5169 18.9254 13.5064 19.1377C13.5829 19.1542 13.6384 19.2204 13.6384 19.2987V19.9423C13.6384 19.9935 13.6146 20.0417 13.574 20.0727L11.0936 21.97C10.7146 22.2599 10.6235 22.8208 10.9148 23.1987C11.0849 23.4194 11.3408 23.5353 11.5998 23.5353C11.7829 23.5353 11.9675 23.4774 12.1241 23.3575L13.3744 22.4012C13.4825 22.3185 13.6384 22.3956 13.6384 22.5316V24.6221C13.6384 24.6732 13.6146 24.7214 13.574 24.7525L11.7085 26.1794C11.3389 26.4621 11.2383 26.9894 11.5033 27.3717C11.7863 27.78 12.3492 27.8652 12.7392 27.5668L13.3744 27.0809C13.4824 26.9983 13.6384 27.0753 13.6384 27.2114V27.6867C13.6384 28.152 13.9959 28.5523 14.4607 28.5742C14.9569 28.5976 15.3665 28.2022 15.3665 27.7111V27.2114C15.3665 27.0753 15.5224 26.9983 15.6305 27.0809L16.2657 27.5668C16.6566 27.8659 17.2204 27.7792 17.5026 27.3703C17.7664 26.9878 17.6652 26.4615 17.2961 26.1792L15.431 24.7525C15.3903 24.7214 15.3665 24.6732 15.3665 24.6221V22.5316C15.3665 22.3956 15.5224 22.3185 15.6305 22.4012L16.8808 23.3575C17.2599 23.6475 17.8023 23.5753 18.0921 23.1962C18.3821 22.8171 18.3099 22.2748 17.9308 21.9849L15.4309 20.0727C15.3903 20.0416 15.3664 19.9934 15.3664 19.9422V19.2987C15.3664 19.2204 15.422 19.1542 15.4985 19.1377C16.488 18.9254 17.3636 18.4038 18.0194 17.6792C18.0713 17.6218 18.1556 17.6071 18.2226 17.6458L18.7833 17.9695C18.8276 17.9951 18.8575 18.0399 18.8641 18.0906L19.2701 21.2116C19.3268 21.647 19.6983 21.9642 20.126 21.9642C20.1631 21.9642 20.2007 21.9619 20.2385 21.9569C20.7117 21.8954 21.0455 21.4618 20.9839 20.9886L20.7808 19.4276C20.7632 19.2926 20.9079 19.1961 21.0258 19.2641L22.8361 20.3094C22.8804 20.335 22.9103 20.3797 22.9169 20.4304L23.2231 22.7834C23.2797 23.2189 23.6513 23.5361 24.0789 23.5361C24.6026 23.5361 25.004 23.0765 24.9368 22.5604L24.8336 21.7674C24.8161 21.6325 24.9608 21.536 25.0786 21.604L25.5114 21.8539C25.9361 22.0992 26.4831 21.9428 26.7114 21.5017C26.9253 21.0882 26.7576 20.5779 26.3544 20.3451L25.9426 20.1074C25.8248 20.0393 25.836 19.8657 25.9617 19.8135L26.6775 19.5157C27.107 19.337 27.3394 18.8532 27.1811 18.4156C27.0122 17.9485 26.49 17.7221 26.0364 17.9107ZM14.5024 17.5161C12.8394 17.5161 11.4864 16.1631 11.4864 14.5C11.4864 12.837 12.8394 11.4839 14.5024 11.4839C16.1655 11.4839 17.5185 12.837 17.5185 14.5C17.5185 16.1631 16.1655 17.5161 14.5024 17.5161Z" fill="#F97590"/>
<path d="M14.5034 27.5309V19.9591C14.5034 19.585 14.2962 19.2432 13.9669 19.0658C12.9989 18.5441 11.0601 17.1665 11.0601 14.501C11.0601 11.8619 12.9609 10.5924 13.9379 10.1142C14.2846 9.94459 14.5034 9.59206 14.5034 9.20617V1.64159C14.5034 1.06539 14.7612 0.761403 15.0179 0.601451C14.8854 0.499555 14.7233 0.435212 14.5452 0.426829C14.0489 0.403437 13.6393 0.798842 13.6393 1.28991V1.78965C13.6393 1.9257 13.4834 2.00273 13.3753 1.92009L12.7596 1.44913C12.39 1.16644 11.8548 1.20716 11.555 1.56297C11.2349 1.94286 11.3001 2.50847 11.6901 2.80685L13.5748 4.24851C13.6155 4.27955 13.6393 4.32781 13.6393 4.3789V6.46938C13.6393 6.60542 13.4834 6.68251 13.3753 6.59982L12.125 5.64345C11.7351 5.34518 11.1722 5.43014 10.8892 5.83846C10.6242 6.22095 10.7249 6.74827 11.0945 7.03102L13.5748 8.9283C13.6155 8.95933 13.6393 9.00759 13.6393 9.05874V9.70228C13.6393 9.78056 13.5838 9.84689 13.5073 9.86331C12.5178 10.0757 11.6422 10.5971 10.9864 11.3219C10.9345 11.3793 10.8503 11.394 10.7832 11.3552L10.2225 11.0315C10.1782 11.0059 10.1483 10.9611 10.1417 10.9104L9.73561 7.78943C9.67398 7.3162 9.24057 6.98253 8.76723 7.04405C8.294 7.10561 7.96027 7.53914 8.02184 8.01242L8.22496 9.57337C8.24251 9.70829 8.0978 9.8048 7.97999 9.73678L6.16965 8.69154C6.12536 8.66599 6.09551 8.62119 6.08888 8.5705L5.78269 6.21744C5.72101 5.74421 5.28776 5.4106 4.81431 5.47205C4.34108 5.53362 4.00736 5.9672 4.06892 6.44043L4.17212 7.23339C4.18968 7.36831 4.04497 7.46483 3.92715 7.3968L3.51561 7.1592C3.11261 6.92652 2.58705 7.036 2.33573 7.42761C2.06743 7.84567 2.20501 8.39809 2.63032 8.64362L3.06311 8.89352C3.18092 8.96154 3.1697 9.13515 3.04408 9.18737L2.3282 9.48518C1.8983 9.66399 1.66608 10.1484 1.82495 10.5861C1.99442 11.053 2.5167 11.2785 2.96954 11.0902L5.16038 10.1789C5.20762 10.1592 5.26126 10.1627 5.30555 10.1883L7.11594 11.2335C7.23375 11.3015 7.22254 11.4751 7.09691 11.5273L5.64352 12.1319C5.20292 12.3153 4.99431 12.821 5.1776 13.2616C5.36083 13.7021 5.86646 13.9109 6.30734 13.7276L9.21321 12.5188C9.26045 12.4991 9.31409 12.5026 9.35844 12.5282L9.91414 12.849C9.98125 12.8878 10.0137 12.9681 9.98975 13.0418C9.84056 13.5018 9.75928 13.992 9.75928 14.501C9.75928 15.0099 9.84056 15.5001 9.98975 15.9601C10.0137 16.0337 9.98125 16.1141 9.91414 16.1529L9.35844 16.4737C9.31415 16.4993 9.26045 16.5028 9.21327 16.4831L6.3074 15.2743C5.85405 15.0858 5.33172 15.312 5.16259 15.779C5.00417 16.2166 5.23645 16.7006 5.66606 16.8793L7.09702 17.4745C7.22265 17.5268 7.23392 17.7003 7.11605 17.7684L5.30566 18.8136C5.26137 18.8391 5.20768 18.8426 5.16049 18.823L2.96959 17.9116C2.52927 17.7284 2.02325 17.9369 1.83991 18.3775C1.65662 18.8182 1.86522 19.3239 2.30588 19.5072L3.04425 19.8144C3.16987 19.8666 3.18109 20.0402 3.06328 20.1082L2.65094 20.3463C2.25089 20.5773 2.08233 21.0819 2.29036 21.4943C2.44414 21.7992 2.74921 21.9706 3.06333 21.9706C3.20992 21.9706 3.35849 21.9332 3.49459 21.8547L3.92732 21.6049C4.04514 21.5369 4.18985 21.6334 4.17229 21.7683L4.06909 22.5612C4.00198 23.0774 4.40333 23.5369 4.92702 23.5369C5.35466 23.5369 5.72616 23.2196 5.78286 22.7842L6.08905 20.4312C6.09568 20.3804 6.12553 20.3357 6.16982 20.3101L7.98016 19.2649C8.09802 19.1969 8.24268 19.2934 8.22512 19.4284L8.02201 20.9893C7.96045 21.4625 8.29417 21.8961 8.7674 21.9577C8.80523 21.9626 8.84284 21.965 8.88 21.965C9.30763 21.965 9.67919 21.6477 9.73583 21.2123L10.1419 18.0913C10.1486 18.0406 10.1784 17.9958 10.2227 17.9702L10.7834 17.6465C10.8505 17.6078 10.9347 17.6224 10.9867 17.6798C11.6424 18.4046 12.518 18.9261 13.5076 19.1384C13.5841 19.1549 13.6396 19.2211 13.6396 19.2994V19.943C13.6396 19.9941 13.6157 20.0423 13.5751 20.0734L11.0948 21.9707C10.7158 22.2606 10.6247 22.8215 10.9159 23.1994C11.0861 23.4201 11.342 23.536 11.6009 23.536C11.7841 23.536 11.9686 23.4781 12.1253 23.3582L13.3756 22.4019C13.4837 22.3192 13.6396 22.3963 13.6396 22.5323V24.6228C13.6396 24.6739 13.6157 24.7221 13.5751 24.7532L11.7097 26.1801C11.3401 26.4628 11.2395 26.9901 11.5045 27.3724C11.7875 27.7807 12.3504 27.8659 12.7404 27.5675L13.3755 27.0816C13.4836 26.999 13.6395 27.076 13.6395 27.2121V27.6874C13.6395 28.1506 13.9937 28.5499 14.4562 28.5746C14.6843 28.5868 14.8939 28.5098 15.0547 28.3763C14.5496 28.0948 14.5034 27.5309 14.5034 27.5309Z" fill="#F64569"/>
<path d="M3.12881 17.5185C2.47128 17.2449 1.71745 17.5556 1.44366 18.2136C1.17076 18.8698 1.48257 19.6257 2.13869 19.8986L2.39125 20.0037C1.82065 20.3621 1.60729 21.0904 1.90703 21.6848C2.24104 22.3471 3.04714 22.5823 3.67902 22.2353L3.64384 22.5057C3.54359 23.2768 4.14471 23.9609 4.92306 23.9609C5.56774 23.9609 6.11675 23.4783 6.20013 22.8382L6.48967 20.6129L7.73185 19.8957L7.59676 20.9337C7.50512 21.6384 8.00389 22.2863 8.70861 22.378C9.42137 22.4706 10.0624 21.9624 10.1531 21.2662L10.5425 18.2729L10.8119 18.1173C11.4755 18.7947 12.2976 19.2703 13.2108 19.5049V19.8134L10.8327 21.6324C10.2715 22.0618 10.1371 22.8891 10.5755 23.4579C11.0127 24.025 11.8188 24.1235 12.3794 23.6948L13.2108 23.0588V24.4932L11.4477 25.8418C10.8891 26.2691 10.7589 27.0473 11.1514 27.6136C11.5809 28.2333 12.4242 28.3405 12.9945 27.9041L13.2118 27.7379C13.2379 28.4348 13.7952 28.9999 14.5009 28.9999C15.212 28.9999 15.7734 28.4278 15.7883 27.7384L16.0049 27.9041C16.5777 28.3423 17.4219 28.2313 17.8495 27.6114C18.2162 27.0799 18.1532 26.3021 17.5222 25.8193C17.3358 25.6767 17.0692 25.7122 16.9266 25.8985C16.7841 26.0849 16.8196 26.3515 17.0059 26.494C17.2584 26.6871 17.2673 26.9591 17.1501 27.1289C17.0068 27.3368 16.7209 27.3821 16.521 27.2293L15.8859 26.7434C15.7066 26.6063 15.4695 26.5832 15.2671 26.6832C15.0647 26.7832 14.939 26.9855 14.939 27.2113V27.711C14.939 27.9572 14.7352 28.1615 14.4778 28.1498C14.2477 28.139 14.0604 27.9312 14.0604 27.6866V27.2113C14.0604 26.7236 13.5007 26.4471 13.1135 26.7435L12.4782 27.2294C12.2807 27.3806 11.9948 27.339 11.8496 27.1297C11.7183 26.9403 11.7695 26.6653 11.9638 26.5167L13.8294 25.0898C13.974 24.979 14.0604 24.8042 14.0604 24.622V22.5315C14.0604 22.3058 13.9346 22.1034 13.7322 22.0034C13.5298 21.9034 13.2927 21.9266 13.1135 22.0637L11.8632 23.0201C11.6713 23.1669 11.3967 23.1318 11.2484 22.9393C11.1014 22.7486 11.156 22.4549 11.3488 22.3074L13.8291 20.4101C13.9739 20.2994 14.0604 20.1245 14.0604 19.9422V19.2986C14.0604 19.0227 13.8636 18.7804 13.5926 18.7223C12.7051 18.5318 11.9115 18.0725 11.2976 17.3941C11.1124 17.1892 10.8051 17.1404 10.567 17.2778L10.0063 17.6015C9.84861 17.6925 9.74037 17.8548 9.71669 18.0357L9.31064 21.1566C9.27988 21.393 9.06278 21.5674 8.81832 21.5356C8.57811 21.5044 8.40813 21.2835 8.4394 21.0433L8.64251 19.4823C8.67162 19.2585 8.57301 19.0416 8.38525 18.9164C8.19749 18.7911 7.95937 18.7834 7.76385 18.8963L5.95352 19.9415C5.7956 20.0326 5.68736 20.195 5.66392 20.3756L5.35772 22.7286C5.32934 22.9468 5.14249 23.1114 4.92318 23.1114C4.65566 23.1114 4.45233 22.878 4.48648 22.6153L4.58962 21.8225C4.65261 21.3388 4.13355 20.9925 3.71096 21.2362L3.27829 21.4861C3.06056 21.6117 2.78082 21.5306 2.66572 21.3022C2.56298 21.0985 2.64992 20.8344 2.85943 20.7134L3.27166 20.4753C3.69403 20.2316 3.65376 19.6086 3.20347 19.4214L2.4651 19.1142C2.24149 19.0212 2.13523 18.7635 2.22818 18.5399C2.32158 18.3155 2.57878 18.2099 2.80251 18.303L4.99352 19.2144C5.16174 19.2844 5.35619 19.2717 5.51416 19.1806L7.32466 18.1354C7.74703 17.8915 7.70647 17.2687 7.2563 17.0814L5.82534 16.4862C5.59957 16.3923 5.47966 16.1395 5.55811 15.9228C5.64454 15.6842 5.90979 15.5697 6.14032 15.6656L9.04618 16.8744C9.21452 16.9445 9.40925 16.9319 9.56699 16.8407L10.1227 16.5199C10.3626 16.3814 10.4751 16.0905 10.39 15.8281C10.1137 14.9764 10.1068 14.0452 10.3901 13.1719C10.4751 12.9096 10.3627 12.6187 10.1227 12.4802L9.56699 12.1593C9.40925 12.0682 9.21446 12.0556 9.04624 12.1255L6.14037 13.3344C5.91676 13.4274 5.65904 13.3212 5.56598 13.0975C5.47292 12.8739 5.57918 12.6162 5.80285 12.5232L7.2563 11.9186C7.70659 11.7312 7.74686 11.1083 7.32449 10.8646L5.51433 9.8195C5.35647 9.72831 5.16174 9.71562 4.99335 9.78563L2.80251 10.697C2.57232 10.7927 2.30691 10.6788 2.22042 10.4402C2.14175 10.2233 2.2616 9.97044 2.48759 9.87642L3.20341 9.57861C3.6537 9.39136 3.69408 8.76848 3.27172 8.52465L2.83893 8.27475C2.62279 8.14997 2.55227 7.86989 2.68946 7.65607C2.81401 7.46208 3.08769 7.40391 3.29941 7.52614L3.71091 7.76369C4.13316 8.00758 4.65261 7.66122 4.58962 7.17763L4.48648 6.38467C4.45521 6.14446 4.62519 5.92362 4.86529 5.89235C5.1059 5.86126 5.32645 6.03118 5.35766 6.27127L5.66386 8.62422C5.68731 8.80507 5.79566 8.96746 5.95346 9.05848L7.76374 10.1037C8.18599 10.3476 8.70527 10.0013 8.64245 9.51755L8.43934 7.9566C8.40807 7.71639 8.57805 7.49555 8.81821 7.46429C9.0587 7.43319 9.27937 7.60311 9.31058 7.84321L9.71669 10.9645C9.74031 11.145 9.84855 11.3073 10.0062 11.3983L10.5669 11.722C10.8051 11.8595 11.1123 11.8106 11.2976 11.6058C11.9115 10.9273 12.7051 10.468 13.5927 10.2775C13.8636 10.2194 14.0603 9.97696 14.0603 9.70118V9.05763C14.0603 8.87525 13.9738 8.70029 13.8291 8.58978L11.3488 6.69251C11.1545 6.54388 11.1032 6.26884 11.2345 6.07938C11.3787 5.87128 11.6643 5.82772 11.8631 5.9798L13.1133 6.93612C13.5007 7.23263 14.0603 6.95594 14.0603 6.46833V4.37802C14.0603 4.19581 13.9739 4.0209 13.8292 3.91017L11.9445 2.46851C11.7458 2.31654 11.7129 2.02943 11.876 1.83572C12.0247 1.65952 12.3034 1.63697 12.4977 1.78554L13.1134 2.25645C13.5007 2.55296 14.0604 2.27633 14.0604 1.78866V1.28892C14.0604 1.04299 14.2634 0.838404 14.5215 0.850129C14.7517 0.860947 14.939 1.0687 14.939 1.31328V1.78866C14.939 2.27633 15.4984 2.55279 15.8859 2.25651L16.521 1.77065C16.7201 1.61834 17.0056 1.66235 17.1497 1.87028C17.2809 2.05968 17.2297 2.33467 17.0354 2.48324L15.1703 3.90989C15.0255 4.02056 14.939 4.19553 14.939 4.37791V6.46844C14.939 6.95605 15.4983 7.23257 15.8859 6.93629L17.1362 5.97992C17.3348 5.82795 17.6203 5.87111 17.7647 6.07943C17.896 6.2689 17.8448 6.544 17.6506 6.69262L15.1703 8.58978C15.0255 8.70046 14.939 8.87542 14.939 9.0578V9.70135C14.939 9.97718 15.1357 10.2195 15.4067 10.2777C16.3237 10.4745 17.1672 10.9785 17.7819 11.697C17.9149 11.8525 18.1398 11.8911 18.317 11.7888L19.0634 11.3579C19.1779 11.2918 19.2552 11.176 19.2723 11.0449L19.6888 7.84332C19.72 7.603 19.9393 7.43308 20.1811 7.46446C20.4218 7.49572 20.5914 7.71588 20.56 7.95672L20.314 9.84731C20.2687 10.1954 20.6433 10.4458 20.9477 10.27L23.1162 9.01804C23.2308 8.95188 23.308 8.83617 23.3251 8.70499L23.6417 6.2715C23.673 6.03129 23.894 5.86131 24.134 5.89252C24.3747 5.92379 24.5443 6.14395 24.5129 6.38478L24.3668 7.50745C24.3215 7.85567 24.6961 8.10585 25.0005 7.93015L25.7212 7.51407C25.9373 7.38935 26.2152 7.46819 26.3317 7.69391C26.4375 7.89872 26.3512 8.16481 26.1394 8.28716L25.4398 8.691C25.1358 8.86647 25.1646 9.31608 25.4891 9.45111L26.5343 9.88594C26.765 9.98194 26.8706 10.2509 26.7623 10.4802C26.6638 10.6886 26.4 10.7817 26.1742 10.6877L23.9311 9.75459C23.8089 9.70384 23.6701 9.71273 23.5555 9.77894L21.3869 11.0309C21.0829 11.2064 21.1117 11.656 21.4362 11.791L23.1965 12.5232C23.4201 12.6163 23.5264 12.8739 23.4334 13.0976C23.3404 13.3213 23.0826 13.4275 22.859 13.3345L19.8782 12.0945C19.7562 12.0437 19.6173 12.0526 19.5026 12.1188L18.7587 12.5483C18.5812 12.6508 18.5022 12.8653 18.5708 13.0584C18.8893 13.9549 18.9009 14.9292 18.6094 15.8281C18.5243 16.0904 18.6368 16.3814 18.8767 16.5198L19.4324 16.8406C19.5903 16.9318 19.785 16.9444 19.9532 16.8744L22.859 15.6656C23.0901 15.5694 23.3551 15.6844 23.4413 15.9227C23.5197 16.1395 23.3998 16.3921 23.174 16.486L21.743 17.0813C21.5346 17.1681 21.3961 17.3619 21.3815 17.5872C21.367 17.8124 21.4794 18.0225 21.6748 18.1353L23.4854 19.1806C23.6431 19.2716 23.8377 19.2842 24.006 19.2143L26.1968 18.3029C26.4273 18.2071 26.6927 18.3212 26.779 18.56C26.8574 18.7768 26.7375 19.0295 26.5117 19.1234L25.7959 19.4212C25.5874 19.5079 25.449 19.7017 25.4343 19.9269C25.4197 20.1523 25.5322 20.3623 25.7276 20.4752L26.1393 20.7129C26.3513 20.8353 26.4375 21.1015 26.3315 21.3064C26.2148 21.532 25.9368 21.6106 25.7212 21.4859L25.2884 21.2361C25.0928 21.1231 24.8547 21.1309 24.6669 21.2562C24.4791 21.3815 24.3805 21.5984 24.4097 21.8221L24.5129 22.6151C24.547 22.8777 24.3438 23.1112 24.0762 23.1112C23.8568 23.1112 23.67 22.9467 23.6416 22.7285L23.3355 20.3756C23.312 20.1948 23.2038 20.0325 23.0459 19.9413L21.2354 18.896C21.04 18.7832 20.802 18.7909 20.6141 18.9161C20.4263 19.0414 20.3277 19.2582 20.3568 19.4822L20.5599 21.0431C20.5941 21.3052 20.3909 21.5392 20.1232 21.5392C19.9039 21.5392 19.7171 21.3747 19.6887 21.1565L19.2826 18.0356C19.2592 17.8549 19.151 17.6925 18.993 17.6013L18.4324 17.2777C18.1943 17.1401 17.887 17.1891 17.7017 17.3939C17.0878 18.0724 16.2942 18.5317 15.4067 18.7221C15.1357 18.7803 14.939 19.0227 14.939 19.2985V19.942C14.939 20.1243 15.0254 20.2992 15.1701 20.4099L17.67 22.322C17.8627 22.4695 17.8996 22.7449 17.7519 22.9379C17.6042 23.131 17.3287 23.1671 17.1362 23.0198L15.8859 22.0634C15.7066 21.9263 15.4695 21.9032 15.2671 22.0032C15.0647 22.1032 14.939 22.3055 14.939 22.5313V24.6218C14.939 24.8041 15.0254 24.979 15.1701 25.0896L15.4308 25.2891C15.6173 25.4316 15.8838 25.3961 16.0263 25.2098C16.1689 25.0234 16.1334 24.7568 15.9471 24.6143L15.7886 24.493V23.0586L16.6201 23.6946C17.187 24.1282 17.9949 24.0189 18.4269 23.454C18.8597 22.8882 18.7522 22.08 18.1862 21.6472L15.7886 19.8132V19.5047C16.7016 19.2702 17.5239 18.7946 18.1875 18.1171L18.4568 18.2726L18.8463 21.266C18.9371 21.9646 19.5806 22.4703 20.2907 22.3778C20.9971 22.2859 21.4945 21.6399 21.4026 20.9334L21.2675 19.8953L22.5097 20.6126L22.7992 22.8379C22.8825 23.4779 23.4315 23.9606 24.0763 23.9606C24.8554 23.9606 25.4557 23.2756 25.3555 22.5054L25.3203 22.2349C25.9405 22.5754 26.7448 22.3563 27.0862 21.6966C27.3953 21.0991 27.1847 20.3656 26.6082 20.0033L26.8382 19.9077C27.4874 19.6376 27.8124 18.9186 27.5781 18.2708C27.3218 17.5621 26.5345 17.2423 25.8706 17.5182L23.7987 18.3802L22.5565 17.663L23.5004 17.2703C24.1497 17.0002 24.4747 16.2812 24.2403 15.6334C23.9838 14.9245 23.1963 14.6049 22.5328 14.8809L19.7459 16.0403L19.4791 15.8863C19.7327 14.9788 19.7317 14.017 19.4792 13.1132L19.7459 12.9593L22.5329 14.1187C23.1888 14.3914 23.945 14.0798 24.2179 13.4237C24.4909 12.7676 24.1791 12.0116 23.523 11.7386L22.5565 11.3365L23.7987 10.6194L25.8481 11.4719C26.4974 11.742 27.2365 11.4657 27.5306 10.8429C27.8526 10.1614 27.5244 9.37737 26.8608 9.10124L26.6083 8.99618C27.1843 8.63419 27.3952 7.90098 27.0867 7.30377C26.7453 6.64278 25.9402 6.42449 25.3204 6.76461L25.3556 6.49415C25.4475 5.78774 24.9502 5.14164 24.2437 5.04977C23.5391 4.9583 22.891 5.45679 22.7993 6.16162L22.5098 8.38701L21.2675 9.10419L21.4026 8.06614C21.4945 7.35973 20.9973 6.71363 20.2908 6.62176C19.5843 6.52989 18.9382 7.02668 18.8463 7.73361L18.4569 10.7269L18.1872 10.8826C17.5288 10.2129 16.6935 9.72893 15.7887 9.49506V9.18643L18.1668 7.36737C18.7255 6.94002 18.8556 6.16168 18.4631 5.59544C18.0336 4.97569 17.1905 4.86881 16.6201 5.30505L15.7886 5.94106V4.50676L17.5517 3.15816C18.1103 2.73092 18.2405 1.95263 17.848 1.3864C17.4186 0.766811 16.5756 0.659308 16.0049 1.09589L15.7877 1.26207C15.7622 0.582334 15.2328 0.0332076 14.5615 0.0016024C13.8245 -0.033911 13.2266 0.548973 13.2111 1.26168L13.0139 1.11084C12.4555 0.683607 11.6703 0.7616 11.2264 1.28847C10.7407 1.86495 10.8577 2.70685 11.4284 3.14343L13.2108 4.50688V5.94123L12.3793 5.30522C11.8095 4.86926 10.9661 4.9754 10.5362 5.59567C10.1438 6.16202 10.274 6.94025 10.8326 7.36755L13.2107 9.1866V9.49506C12.2977 9.72955 11.4754 10.2052 10.8119 10.8826L10.5424 10.727L10.153 7.73367C10.0612 7.02901 9.41338 6.53029 8.7085 6.62193C8.00378 6.71363 7.505 7.3616 7.59665 8.06631L7.73173 9.1043L6.48956 8.38713L6.20001 6.16168C6.10826 5.45713 5.46029 4.95875 4.75558 5.04989C4.05086 5.14164 3.55209 5.78961 3.64373 6.49427L3.67902 6.76552C3.0775 6.44771 2.33732 6.63162 1.97432 7.19717C1.57234 7.82333 1.78588 8.63 2.39034 8.99663L2.16106 9.09201C1.51128 9.3623 1.18645 10.0818 1.42157 10.73C1.67854 11.4382 2.46573 11.7572 3.1287 11.4814L5.20066 10.6195L6.44283 11.3367L5.47632 11.7388C4.8202 12.0118 4.50846 12.7677 4.7814 13.4238C5.0543 14.0799 5.81005 14.3917 6.46651 14.1188L9.25354 12.9595L9.52026 13.1134C9.26447 14.0289 9.26986 14.9904 9.52021 15.8865L9.25354 16.0404L6.46645 14.881C5.8028 14.6051 5.01561 14.9249 4.75909 15.6333C4.52449 16.2812 4.84943 17.0002 5.49881 17.2704L6.44289 17.6631L5.20066 18.3803L3.12881 17.5185Z" fill="black"/>
<path d="M14.4996 11.9088C15.5999 11.9088 16.5832 12.608 16.9465 13.6489C17.0238 13.8703 17.2661 13.9872 17.4876 13.9099C17.7091 13.8326 17.826 13.5904 17.7486 13.3688C17.2664 11.9873 15.9607 11.0591 14.4996 11.0591C12.6023 11.0591 11.0587 12.6027 11.0587 14.5001C11.0587 16.3974 12.6023 17.941 14.4996 17.941C15.9607 17.941 17.2664 17.0128 17.7486 15.6313C17.826 15.4098 17.7091 15.1675 17.4876 15.0902C17.2663 15.0129 17.0239 15.1297 16.9465 15.3513C16.5832 16.392 15.5999 17.0913 14.4996 17.0913C13.0708 17.0913 11.9083 15.9289 11.9083 14.5C11.9083 13.0711 13.0708 11.9088 14.4996 11.9088Z" fill="black"/>
</svg>
