<svg width="37" height="37" viewBox="0 0 37 37" fill="none" xmlns="http://www.w3.org/2000/svg">
<g clip-path="url(#clip0)">
<path d="M36.3786 16.5405L33.2529 13.6924V4.24851C33.2529 3.64762 32.7657 3.16041 32.1648 3.16041H24.6408C24.0399 3.16041 23.5527 3.64755 23.5527 4.24851V4.85366L19.7779 1.41403C19.0492 0.749985 17.9504 0.750058 17.222 1.41396L0.621329 16.5405C0.0377117 17.0724 -0.155165 17.8919 0.129995 18.6282C0.415227 19.3645 1.1097 19.8403 1.89935 19.8403H4.5507V34.9959C4.5507 35.5968 5.03784 36.084 5.6388 36.084H14.738C15.3389 36.084 15.8261 35.5968 15.8261 34.9959V25.7939H21.1738V34.9959C21.1738 35.5968 21.661 36.084 22.2619 36.084H31.3607C31.9616 36.084 32.4488 35.5969 32.4488 34.9959V19.8403H35.1007C35.8903 19.8403 36.5848 19.3645 36.8701 18.6283C37.1551 17.8919 36.9623 17.0724 36.3786 16.5405ZM31.3607 17.6641C30.7599 17.6641 30.2726 18.1513 30.2726 18.7522V33.9078H23.3501V24.7057C23.3501 24.1049 22.8629 23.6176 22.262 23.6176H14.738C14.1371 23.6176 13.6499 24.1048 13.6499 24.7057V33.9078H6.72683V18.7522C6.72683 18.1513 6.23969 17.6641 5.63873 17.6641H2.61926L18.5001 3.19365L23.9081 8.12151C24.2267 8.41173 24.6865 8.48653 25.0806 8.31258C25.4747 8.13842 25.729 7.74804 25.729 7.3172V5.33661H31.0768V14.173C31.0768 14.4792 31.2057 14.771 31.4321 14.9773L34.3807 17.6641H31.3607Z" fill="#F64569"/>
</g>
<defs>
<clipPath id="clip0">
<rect width="37" height="37" fill="white"/>
</clipPath>
</defs>
</svg>
