<svg width="38" height="38" viewBox="0 0 38 38" fill="none" xmlns="http://www.w3.org/2000/svg">
<g clip-path="url(#clip0)">
<path d="M32.6656 9.02652C31.1857 8.91289 29.511 8.57668 27.6881 8.02738C25.4982 7.36728 23.3724 7.46919 21.3697 8.33005C21.0872 8.45147 20.9567 8.77885 21.0781 9.06133C21.1995 9.34365 21.5265 9.47443 21.8094 9.35293C23.5647 8.59835 25.4346 8.51092 27.3669 9.09331C29.2666 9.66584 31.0206 10.0167 32.5804 10.1365C32.5949 10.1377 32.6094 10.1382 32.6236 10.1382C32.9117 10.1382 33.1556 9.91618 33.178 9.62413C33.2016 9.3176 32.9722 9.05004 32.6656 9.02652Z" fill="#F64569"/>
<path d="M32.6656 11.3922C31.186 11.2787 29.5114 10.9425 27.6881 10.3931C25.4982 9.73301 23.3724 9.83491 21.3697 10.6958C21.0872 10.8172 20.9567 11.1446 21.0781 11.427C21.1995 11.7095 21.5265 11.8401 21.8094 11.7187C23.5647 10.9641 25.4346 10.8766 27.3669 11.459C29.267 12.0316 31.021 12.3826 32.5805 12.5023C32.595 12.5034 32.6094 12.5039 32.6236 12.5039C32.9117 12.5039 33.1556 12.2819 33.178 11.9898C33.2016 11.6833 32.9722 11.4158 32.6656 11.3922Z" fill="#F64569"/>
<path d="M32.6656 23.221C31.1856 23.1074 29.511 22.7712 27.6881 22.2218C25.4983 21.5617 23.3726 21.6637 21.3697 22.5246C21.0872 22.646 20.9567 22.9734 21.0781 23.2558C21.1995 23.5382 21.5265 23.6689 21.8094 23.5474C23.5648 22.7929 25.4347 22.7056 27.3669 23.2877C29.2665 23.8603 31.0206 24.2112 32.5804 24.331C32.5949 24.3322 32.6094 24.3327 32.6236 24.3327C32.9117 24.3327 33.1556 24.1107 33.178 23.8186C33.2016 23.5121 32.9722 23.2445 32.6656 23.221Z" fill="#F64569"/>
<path d="M32.6656 25.5868C31.1857 25.4732 29.511 25.1369 27.6881 24.5877C25.4982 23.9276 23.3724 24.0295 21.3697 24.8903C21.0872 25.0117 20.9567 25.3391 21.0781 25.6216C21.1995 25.904 21.5265 26.0347 21.8094 25.9132C23.5647 25.1586 25.4346 25.0712 27.3669 25.6536C29.2666 26.2261 31.0206 26.577 32.5804 26.6968C32.5949 26.698 32.6094 26.6984 32.6236 26.6984C32.9117 26.6984 33.1556 26.4765 33.178 26.1844C33.2016 25.8779 32.9722 25.6103 32.6656 25.5868Z" fill="#F64569"/>
<path d="M32.6656 13.758C31.1856 13.6444 29.511 13.3082 27.6881 12.7588C25.4983 12.0988 23.3726 12.2006 21.3697 13.0615C21.0872 13.183 20.9567 13.5103 21.0781 13.7928C21.1995 14.0751 21.5265 14.2058 21.8094 14.0844C23.5648 13.3298 25.4347 13.2425 27.3669 13.8247C29.2665 14.3972 31.0206 14.7482 32.5804 14.868C32.5949 14.8692 32.6094 14.8696 32.6236 14.8696C32.9117 14.8696 33.1556 14.6477 33.178 14.3556C33.2016 14.0491 32.9722 13.7815 32.6656 13.758Z" fill="#F64569"/>
<path d="M32.6656 18.4895C31.186 18.376 29.5114 18.0398 27.6881 17.4904C25.4983 16.8303 23.3725 16.9322 21.3697 17.7931C21.0872 17.9145 20.9567 18.2419 21.0781 18.5243C21.1995 18.8067 21.5265 18.9374 21.8094 18.8159C23.5646 18.0614 25.4346 17.974 27.3669 18.5563C29.267 19.1289 31.021 19.4799 32.5805 19.5996C32.595 19.6007 32.6094 19.6012 32.6236 19.6012C32.9117 19.6012 33.1556 19.3792 33.178 19.0871C33.2016 18.7805 32.9722 18.5131 32.6656 18.4895Z" fill="#F64569"/>
<path d="M32.6656 16.1238C31.1857 16.0102 29.511 15.674 27.6881 15.1247C25.4984 14.4646 23.3725 14.5665 21.3697 15.4273C21.0872 15.5488 20.9567 15.8761 21.0781 16.1586C21.1995 16.4409 21.5265 16.5717 21.8094 16.4502C23.5649 15.6956 25.4347 15.6083 27.3669 16.1906C29.2666 16.7631 31.0206 17.114 32.5804 17.2338C32.5949 17.235 32.6094 17.2355 32.6236 17.2355C32.9117 17.2355 33.1556 17.0135 33.178 16.7214C33.2016 16.4149 32.9722 16.1473 32.6656 16.1238Z" fill="#F64569"/>
<path d="M32.6656 20.8551C31.1858 20.7417 29.5111 20.4055 27.6881 19.8561C25.4983 19.1961 23.3726 19.2979 21.3697 20.1588C21.0872 20.2802 20.9567 20.6076 21.0781 20.8901C21.1995 21.1724 21.5265 21.3031 21.8094 21.1817C23.5648 20.4271 25.4347 20.3398 27.3669 20.922C29.2667 21.4946 31.0207 21.8456 32.5805 21.9653C32.595 21.9664 32.6094 21.9669 32.6236 21.9669C32.9117 21.9669 33.1556 21.7449 33.178 21.4528C33.2016 21.1462 32.9722 20.8787 32.6656 20.8551Z" fill="#F64569"/>
<path d="M5.37644 10.138C5.39069 10.138 5.40517 10.1375 5.41964 10.1364C6.9795 10.0167 8.73351 9.66571 10.6331 9.09319C12.5654 8.51086 14.4353 8.59815 16.1907 9.3528C16.4731 9.47422 16.8006 9.3436 16.922 9.0612C17.0434 8.77872 16.9129 8.45134 16.6304 8.32992C14.6277 7.46898 12.5018 7.36723 10.3119 8.02725C8.48896 8.57655 6.81436 8.91276 5.33444 9.02639C5.02791 9.04984 4.7985 9.31747 4.8221 9.624C4.84444 9.91605 5.0884 10.138 5.37644 10.138Z" fill="#F64569"/>
<path d="M5.37644 12.5038C5.39069 12.5038 5.40517 12.5033 5.41957 12.5022C6.97905 12.3826 8.73314 12.0316 10.6331 11.459C12.5654 10.8767 14.4353 10.9639 16.1907 11.7186C16.4731 11.84 16.8006 11.7094 16.922 11.427C17.0434 11.1445 16.9129 10.8172 16.6304 10.6957C14.6277 9.8348 12.5018 9.73312 10.3119 10.3931C8.48866 10.9425 6.81399 11.2786 5.33451 11.3922C5.02791 11.4157 4.7985 11.6832 4.8221 11.9897C4.84444 12.2819 5.0884 12.5038 5.37644 12.5038Z" fill="#F64569"/>
<path d="M5.37644 24.3327C5.39069 24.3327 5.40517 24.3322 5.41964 24.3311C6.97957 24.2114 8.73358 23.8603 10.6331 23.2878C12.5655 22.7054 14.4353 22.7929 16.1907 23.5475C16.4731 23.6689 16.8006 23.5383 16.922 23.2559C17.0434 22.9734 16.9129 22.6461 16.6304 22.5246C14.6277 21.6637 12.5018 21.5619 10.3119 22.2219C8.48903 22.7713 6.81443 23.1075 5.33444 23.2211C5.02791 23.2446 4.7985 23.5122 4.8221 23.8187C4.84444 24.1108 5.0884 24.3327 5.37644 24.3327Z" fill="#F64569"/>
<path d="M5.37644 26.6985C5.39069 26.6985 5.40517 26.6979 5.41964 26.6968C6.97949 26.5771 8.73351 26.2261 10.6331 25.6536C12.5654 25.0713 14.4353 25.1585 16.1907 25.9132C16.4731 26.0345 16.8006 25.904 16.922 25.6216C17.0434 25.3391 16.9129 25.0118 16.6304 24.8903C14.6277 24.0294 12.5018 23.9277 10.3119 24.5877C8.48895 25.137 6.81436 25.4732 5.33444 25.5868C5.02791 25.6103 4.7985 25.8779 4.8221 26.1844C4.84444 26.4765 5.0884 26.6985 5.37644 26.6985Z" fill="#F64569"/>
<path d="M5.37644 14.8696C5.39069 14.8696 5.40517 14.8691 5.41964 14.868C6.97957 14.7483 8.73358 14.3972 10.6331 13.8247C12.5655 13.2423 14.4353 13.3298 16.1907 14.0844C16.4731 14.2057 16.8006 14.0752 16.922 13.7928C17.0434 13.5103 16.9129 13.1829 16.6304 13.0615C14.6277 12.2006 12.5018 12.0988 10.3119 12.7588C8.48903 13.3081 6.81443 13.6443 5.33444 13.758C5.02791 13.7814 4.7985 14.0491 4.8221 14.3556C4.84444 14.6476 5.0884 14.8696 5.37644 14.8696Z" fill="#F64569"/>
<path d="M5.37644 19.6011C5.39069 19.6011 5.40517 19.6006 5.41957 19.5996C6.97905 19.4799 8.73313 19.1289 10.6331 18.5563C12.5654 17.974 14.4353 18.0612 16.1907 18.8159C16.4731 18.9373 16.8006 18.8067 16.922 18.5243C17.0434 18.2418 16.9129 17.9145 16.6304 17.793C14.6277 16.9322 12.502 16.8303 10.3119 17.4904C8.48866 18.0398 6.81399 18.3759 5.33451 18.4894C5.02791 18.5129 4.7985 18.7805 4.8221 19.087C4.84444 19.3792 5.0884 19.6011 5.37644 19.6011Z" fill="#F64569"/>
<path d="M5.37644 17.2354C5.39069 17.2354 5.40517 17.2349 5.41964 17.2338C6.97949 17.114 8.73351 16.7631 10.6331 16.1905C12.5653 15.6083 14.4352 15.6954 16.1907 16.4502C16.4731 16.5714 16.8006 16.441 16.922 16.1586C17.0434 15.8761 16.9129 15.5487 16.6304 15.4273C14.6275 14.5663 12.5018 14.4644 10.3119 15.1246C8.48895 15.6739 6.81436 16.0101 5.33444 16.1237C5.02791 16.1472 4.7985 16.4148 4.8221 16.7214C4.84444 17.0134 5.0884 17.2354 5.37644 17.2354Z" fill="#F64569"/>
<path d="M5.37644 21.9669C5.39069 21.9669 5.40517 21.9663 5.41957 21.9653C6.97935 21.8457 8.73336 21.4946 10.6331 20.922C12.5655 20.3395 14.4353 20.4271 16.1907 21.1817C16.4731 21.3031 16.8006 21.1725 16.922 20.8901C17.0434 20.6076 16.9129 20.2802 16.6304 20.1588C14.6277 19.2979 12.5018 19.1961 10.3119 19.8561C8.48895 20.4055 6.81421 20.7417 5.33451 20.8551C5.02791 20.8787 4.7985 21.1462 4.8221 21.4528C4.84444 21.7449 5.0884 21.9669 5.37644 21.9669Z" fill="#F64569"/>
<path d="M36.6405 6.92579H35.7691V6.41791C35.7691 5.70614 35.1619 5.14312 34.4508 5.19975C33.6295 5.26543 31.8309 5.26944 29.0134 4.555C28.7153 4.47923 28.4124 4.6598 28.337 4.95772C28.2614 5.25578 28.4418 5.5586 28.7397 5.63408C31.5641 6.35022 33.4528 6.39675 34.5398 6.3094C34.6031 6.30494 34.6558 6.35415 34.6558 6.41791V28.8808C32.5472 29.1083 29.7304 28.5046 27.6881 27.8892C23.1265 26.5145 20.1775 28.8763 19.5566 29.2128V6.96267C20.1581 6.39853 22.5823 4.40041 26.1903 4.98095C26.4937 5.03023 26.7795 4.82346 26.8284 4.5199C26.8773 4.21642 26.6709 3.93075 26.3673 3.88184C22.5788 3.27146 19.9645 5.12204 18.9986 5.9648C16.784 4.04415 13.6162 3.191 10.3119 4.18703C6.76552 5.25578 4.55246 5.2799 3.54924 5.19982C2.83718 5.14267 2.23103 5.70748 2.23103 6.41791V6.92579H1.35947C0.609859 6.92579 0 7.53557 0 8.28526V30.8585C0 31.6082 0.609933 32.218 1.35955 32.218H15.7823C15.9984 32.218 16.1944 32.3372 16.2817 32.5221C17.362 34.8077 20.634 34.8161 21.7182 32.5221C21.8056 32.3374 22.0016 32.218 22.2177 32.218H36.6404C37.3901 32.218 37.9999 31.6081 37.9999 30.8585V20.3019C37.9999 19.9944 37.7507 19.7453 37.4432 19.7453C37.1357 19.7453 36.8866 19.9944 36.8866 20.3019V30.8584C36.8866 30.9942 36.7762 31.1046 36.6404 31.1046H22.2178C21.5733 31.1046 20.9822 31.4742 20.7118 32.0462C20.0314 33.4857 17.9712 33.4914 17.2882 32.0463C17.0179 31.4743 16.4269 31.1046 15.7823 31.1046H1.35955C1.22373 31.1046 1.11329 30.9942 1.11329 30.8584V8.28526C1.11329 8.14951 1.22373 8.03908 1.35947 8.03908H2.23103V29.3559C2.23103 29.6084 2.40106 29.8294 2.64525 29.894C2.75108 29.922 5.30066 30.5623 10.6332 28.9552C13.2133 28.1776 15.7035 28.6544 17.6793 30.0477C18.4432 30.5863 19.5067 30.622 20.321 30.0477C21.5142 29.2062 24.016 27.9455 27.367 28.9552C32.6998 30.5622 35.2491 29.9219 35.355 29.894C35.5992 29.8294 35.7692 29.6084 35.7692 29.3559V8.03908H36.6406C36.7763 8.03908 36.8868 8.14951 36.8868 8.28526V17.7043C36.8868 18.0118 37.1359 18.2609 37.4434 18.2609C37.7509 18.2609 38.0001 18.0118 38.0001 17.7043V8.28526C38 7.53557 37.3901 6.92579 36.6405 6.92579ZM3.34432 6.41791C3.34432 6.35549 3.39531 6.30487 3.46025 6.3094C4.54162 6.39638 6.91181 6.37441 10.6332 5.25289C13.6471 4.34489 16.5263 5.16805 18.4434 6.96312V29.2128C18.1241 29.04 14.9941 26.4779 10.3119 27.8893C10.0117 27.9798 9.68174 28.0737 9.37641 28.1553C9.37269 28.1563 9.36898 28.1573 9.36535 28.1583C7.57295 28.6364 5.18859 29.0797 3.34424 28.8811C3.34432 27.3339 3.34432 6.83279 3.34432 6.41791Z" fill="#F64569"/>
</g>
<defs>
<clipPath id="clip0">
<rect width="38" height="38" fill="white"/>
</clipPath>
</defs>
</svg>
